<svg xmlns="http://www.w3.org/2000/svg" xmlns:xlink="http://www.w3.org/1999/xlink" contentStyleType="text/css" data-diagram-type="SEQUENCE" height="1144px" preserveAspectRatio="none" style="width:2669px;height:1144px;background:#FFFFFF;" version="1.1" viewBox="0 0 2669 1144" width="2669px" zoomAndPan="magnify"><defs/><g><g><title>InstanceP1</title><rect fill="#FFFFFF" height="1039.0443" style="stroke:#181818;stroke-width:1;" width="10" x="43.3789" y="49.0679"/></g><g><title>SharedMemoryFactoryP1</title><rect fill="#FFFFFF" height="1039.0443" style="stroke:#181818;stroke-width:1;" width="10" x="445.0191" y="49.0679"/></g><g><title>SharedMemoryResourceP1</title><rect fill="#FFFFFF" height="31.706" style="stroke:#181818;stroke-width:1;" width="10" x="814.7183" y="136.186"/></g><g><title>SharedMemoryResourceP1</title><rect fill="#FFFFFF" height="158.5301" style="stroke:#181818;stroke-width:1;" width="10" x="814.7183" y="226.304"/></g><g><title>SharedMemoryResourceP1</title><rect fill="#FFFFFF" height="28" style="stroke:#181818;stroke-width:1;" width="10" x="814.7183" y="458.2461"/></g><g><title>SharedMemoryResourceP1</title><rect fill="#FFFFFF" height="31.706" style="stroke:#181818;stroke-width:1;" width="10" x="814.7183" y="524.9521"/></g><g><title>SharedMemoryResourceP1</title><rect fill="#FFFFFF" height="76.6879" style="stroke:#181818;stroke-width:1;" width="10" x="814.7183" y="615.0702"/></g><g><title>SharedMemoryResourceP1</title><rect fill="#FFFFFF" height="14" style="stroke:#181818;stroke-width:1;" width="10" x="814.7183" y="730.4641"/></g><g><title>SharedMemoryResourceP1</title><rect fill="#FFFFFF" height="14" style="stroke:#181818;stroke-width:1;" width="10" x="814.7183" y="776.1701"/></g><g><title>SharedMemoryResourceP1</title><rect fill="#FFFFFF" height="251.2361" style="stroke:#181818;stroke-width:1;" width="10" x="814.7183" y="836.8762"/></g><g><title>TypedMemoryP1</title><rect fill="#FFFFFF" height="312.0602" style="stroke:#181818;stroke-width:1;" width="10" x="1142.3025" y="72.7739"/></g><g><title>tmd_ITypedSharedMemory</title><rect fill="#FFFFFF" height="31.706" style="stroke:#181818;stroke-width:1;" width="10" x="1469.8867" y="289.716"/></g><g><title>os_Stat</title><rect fill="#FFFFFF" height="14" style="stroke:#181818;stroke-width:1;" width="10" x="1607.0623" y="615.0702"/></g><g><title>os_utils_AccessControlList</title><rect fill="#FFFFFF" height="14" style="stroke:#181818;stroke-width:1;" width="10" x="1739.8489" y="677.7581"/></g><g><title>os_Unistd</title><rect fill="#FFFFFF" height="14" style="stroke:#181818;stroke-width:1;" width="10" x="1881.2455" y="776.1701"/></g><g><title>os_Mman</title><rect fill="#FFFFFF" height="63.412" style="stroke:#181818;stroke-width:1;" width="10" x="1969.2182" y="321.4221"/></g><g><title>os_Mman</title><rect fill="#FFFFFF" height="31.706" style="stroke:#181818;stroke-width:1;" width="10" x="1969.2182" y="524.9521"/></g><g><title>os_Mman</title><rect fill="#FFFFFF" height="14" style="stroke:#181818;stroke-width:1;" width="10" x="1969.2182" y="873.5822"/></g><g><title>MemoryResourceProxyP1</title><rect fill="#FFFFFF" height="14" style="stroke:#181818;stroke-width:1;" width="10" x="2109.8868" y="919.2882"/></g><g><title>AnonymousSharedMemoryObject</title><rect fill="#FFFFFF" height="14" style="stroke:#181818;stroke-width:1;" width="10" x="2330.292" y="1010.7002"/></g><g><title>MemoryResourceRegistryP1</title><rect fill="#FFFFFF" height="14" style="stroke:#181818;stroke-width:1;" width="10" x="2558.8173" y="964.9942"/></g><rect fill="none" height="209.9421" style="stroke:#000000;stroke-width:1.5;" width="1309.7745" x="713.2866" y="182.892"/><rect fill="none" height="391.336" style="stroke:#000000;stroke-width:1.5;" width="1319.7745" x="703.2866" y="406.8341"/><rect fill="none" height="128.0999" style="stroke:#000000;stroke-width:1.5;" width="1133.829" x="713.2866" y="571.6582"/><g><title>InstanceP1</title><rect fill="#000000" fill-opacity="0.00000" height="1067.0443" width="8" x="44.3789" y="39.0679"/><line style="stroke:#181818;stroke-width:0.5;stroke-dasharray:5,5;" x1="48" x2="48" y1="39.0679" y2="1106.1123"/></g><g><title>SharedMemoryFactoryP1</title><rect fill="#000000" fill-opacity="0.00000" height="1067.0443" width="8" x="446.0191" y="39.0679"/><line style="stroke:#181818;stroke-width:0.5;stroke-dasharray:5,5;" x1="449.8594" x2="449.8594" y1="39.0679" y2="1106.1123"/></g><g><title>SharedMemoryResourceP1</title><rect fill="#000000" fill-opacity="0.00000" height="1067.0443" width="8" x="815.7183" y="39.0679"/><line style="stroke:#181818;stroke-width:0.5;stroke-dasharray:5,5;" x1="819.2866" x2="819.2866" y1="39.0679" y2="1106.1123"/></g><g><title>TypedMemoryP1</title><rect fill="#000000" fill-opacity="0.00000" height="1067.0443" width="8" x="1143.3025" y="39.0679"/><line style="stroke:#181818;stroke-width:0.5;stroke-dasharray:5,5;" x1="1146.5057" x2="1146.5057" y1="39.0679" y2="1106.1123"/></g><g><title>tmd_ITypedSharedMemory</title><rect fill="#000000" fill-opacity="0.00000" height="1067.0443" width="8" x="1470.8867" y="39.0679"/><line style="stroke:#181818;stroke-width:0.5;stroke-dasharray:5,5;" x1="1474.2311" x2="1474.2311" y1="39.0679" y2="1106.1123"/></g><g><title>os_Stat</title><rect fill="#000000" fill-opacity="0.00000" height="1067.0443" width="8" x="1608.0623" y="39.0679"/><line style="stroke:#181818;stroke-width:0.5;stroke-dasharray:5,5;" x1="1611.5424" x2="1611.5424" y1="39.0679" y2="1106.1123"/></g><g><title>os_utils_AccessControlList</title><rect fill="#000000" fill-opacity="0.00000" height="1067.0443" width="8" x="1740.8489" y="39.0679"/><line style="stroke:#181818;stroke-width:0.5;stroke-dasharray:5,5;" x1="1744.5822" x2="1744.5822" y1="39.0679" y2="1106.1123"/></g><g><title>os_Unistd</title><rect fill="#000000" fill-opacity="0.00000" height="1067.0443" width="8" x="1882.2455" y="39.0679"/><line style="stroke:#181818;stroke-width:0.5;stroke-dasharray:5,5;" x1="1886.1156" x2="1886.1156" y1="39.0679" y2="1106.1123"/></g><g><title>os_Mman</title><rect fill="#000000" fill-opacity="0.00000" height="1067.0443" width="8" x="1970.2182" y="39.0679"/><line style="stroke:#181818;stroke-width:0.5;stroke-dasharray:5,5;" x1="1973.3754" x2="1973.3754" y1="39.0679" y2="1106.1123"/></g><g><title>MemoryResourceProxyP1</title><rect fill="#000000" fill-opacity="0.00000" height="1067.0443" width="8" x="2110.8868" y="39.0679"/><line style="stroke:#181818;stroke-width:0.5;stroke-dasharray:5,5;" x1="2114.0611" x2="2114.0611" y1="39.0679" y2="1106.1123"/></g><g><title>AnonymousSharedMemoryObject</title><rect fill="#000000" fill-opacity="0.00000" height="1067.0443" width="8" x="2331.292" y="39.0679"/><line style="stroke:#181818;stroke-width:0.5;stroke-dasharray:5,5;" x1="2334.7125" x2="2334.7125" y1="39.0679" y2="1106.1123"/></g><g><title>MemoryResourceRegistryP1</title><rect fill="#000000" fill-opacity="0.00000" height="1067.0443" width="8" x="2559.8173" y="39.0679"/><line style="stroke:#181818;stroke-width:0.5;stroke-dasharray:5,5;" x1="2562.8716" x2="2562.8716" y1="39.0679" y2="1106.1123"/></g><g class="participant participant-head" data-participant="Instance"><rect fill="#E2E2F0" height="33.0679" rx="2.5" ry="2.5" style="stroke:#181818;stroke-width:0.5;" width="86.7577" x="5" y="5"/><text fill="#000000" font-family="sans-serif" font-size="14" lengthAdjust="spacing" textLength="72.7577" x="12" y="26.9659">InstanceP1</text></g><g class="participant participant-tail" data-participant="Instance"><rect fill="#E2E2F0" height="33.0679" rx="2.5" ry="2.5" style="stroke:#181818;stroke-width:0.5;" width="86.7577" x="5" y="1105.1123"/><text fill="#000000" font-family="sans-serif" font-size="14" lengthAdjust="spacing" textLength="72.7577" x="12" y="1127.0782">InstanceP1</text></g><g class="participant participant-head" data-participant="Factory"><rect fill="#E2E2F0" height="33.0679" rx="2.5" ry="2.5" style="stroke:#181818;stroke-width:0.5;" width="180.3194" x="359.8594" y="5"/><text fill="#000000" font-family="sans-serif" font-size="14" lengthAdjust="spacing" textLength="166.3194" x="366.8594" y="26.9659">SharedMemoryFactoryP1</text></g><g class="participant participant-tail" data-participant="Factory"><rect fill="#E2E2F0" height="33.0679" rx="2.5" ry="2.5" style="stroke:#181818;stroke-width:0.5;" width="180.3194" x="359.8594" y="1105.1123"/><text fill="#000000" font-family="sans-serif" font-size="14" lengthAdjust="spacing" textLength="166.3194" x="366.8594" y="1127.0782">SharedMemoryFactoryP1</text></g><g class="participant participant-head" data-participant="Resource"><rect fill="#E2E2F0" height="33.0679" rx="2.5" ry="2.5" style="stroke:#181818;stroke-width:0.5;" width="192.8633" x="723.2866" y="5"/><text fill="#000000" font-family="sans-serif" font-size="14" lengthAdjust="spacing" textLength="178.8633" x="730.2866" y="26.9659">SharedMemoryResourceP1</text></g><g class="participant participant-tail" data-participant="Resource"><rect fill="#E2E2F0" height="33.0679" rx="2.5" ry="2.5" style="stroke:#181818;stroke-width:0.5;" width="192.8633" x="723.2866" y="1105.1123"/><text fill="#000000" font-family="sans-serif" font-size="14" lengthAdjust="spacing" textLength="178.8633" x="730.2866" y="1127.0782">SharedMemoryResourceP1</text></g><g class="participant participant-head" data-participant="TypedMemory"><rect fill="#E2E2F0" height="33.0679" rx="2.5" ry="2.5" style="stroke:#181818;stroke-width:0.5;" width="125.5936" x="1084.5057" y="5"/><text fill="#000000" font-family="sans-serif" font-size="14" lengthAdjust="spacing" textLength="111.5936" x="1091.5057" y="26.9659">TypedMemoryP1</text></g><g class="participant participant-tail" data-participant="TypedMemory"><rect fill="#E2E2F0" height="33.0679" rx="2.5" ry="2.5" style="stroke:#181818;stroke-width:0.5;" width="125.5936" x="1084.5057" y="1105.1123"/><text fill="#000000" font-family="sans-serif" font-size="14" lengthAdjust="spacing" textLength="111.5936" x="1091.5057" y="1127.0782">TypedMemoryP1</text></g><g class="participant participant-head" data-participant="ITypedSharedMemory"><rect fill="#E2E2F0" height="33.0679" rx="2.5" ry="2.5" style="stroke:#181818;stroke-width:0.5;" width="193.3113" x="1378.2311" y="5"/><text fill="#000000" font-family="sans-serif" font-size="14" lengthAdjust="spacing" textLength="179.3113" x="1385.2311" y="26.9659">tmd_ITypedSharedMemory</text></g><g class="participant participant-tail" data-participant="ITypedSharedMemory"><rect fill="#E2E2F0" height="33.0679" rx="2.5" ry="2.5" style="stroke:#181818;stroke-width:0.5;" width="193.3113" x="1378.2311" y="1105.1123"/><text fill="#000000" font-family="sans-serif" font-size="14" lengthAdjust="spacing" textLength="179.3113" x="1385.2311" y="1127.0782">tmd_ITypedSharedMemory</text></g><g class="participant participant-head" data-participant="Stat"><rect fill="#E2E2F0" height="33.0679" rx="2.5" ry="2.5" style="stroke:#181818;stroke-width:0.5;" width="61.0398" x="1581.5424" y="5"/><text fill="#000000" font-family="sans-serif" font-size="14" lengthAdjust="spacing" textLength="47.0398" x="1588.5424" y="26.9659">os_Stat</text></g><g class="participant participant-tail" data-participant="Stat"><rect fill="#E2E2F0" height="33.0679" rx="2.5" ry="2.5" style="stroke:#181818;stroke-width:0.5;" width="61.0398" x="1581.5424" y="1105.1123"/><text fill="#000000" font-family="sans-serif" font-size="14" lengthAdjust="spacing" textLength="47.0398" x="1588.5424" y="1127.0782">os_Stat</text></g><g class="participant participant-head" data-participant="ACL"><rect fill="#E2E2F0" height="33.0679" rx="2.5" ry="2.5" style="stroke:#181818;stroke-width:0.5;" width="184.5334" x="1652.5822" y="5"/><text fill="#000000" font-family="sans-serif" font-size="14" lengthAdjust="spacing" textLength="170.5334" x="1659.5822" y="26.9659">os_utils_AccessControlList</text></g><g class="participant participant-tail" data-participant="ACL"><rect fill="#E2E2F0" height="33.0679" rx="2.5" ry="2.5" style="stroke:#181818;stroke-width:0.5;" width="184.5334" x="1652.5822" y="1105.1123"/><text fill="#000000" font-family="sans-serif" font-size="14" lengthAdjust="spacing" textLength="170.5334" x="1659.5822" y="1127.0782">os_utils_AccessControlList</text></g><g class="participant participant-head" data-participant="Unistd"><rect fill="#E2E2F0" height="33.0679" rx="2.5" ry="2.5" style="stroke:#181818;stroke-width:0.5;" width="78.2598" x="1847.1156" y="5"/><text fill="#000000" font-family="sans-serif" font-size="14" lengthAdjust="spacing" textLength="64.2598" x="1854.1156" y="26.9659">os_Unistd</text></g><g class="participant participant-tail" data-participant="Unistd"><rect fill="#E2E2F0" height="33.0679" rx="2.5" ry="2.5" style="stroke:#181818;stroke-width:0.5;" width="78.2598" x="1847.1156" y="1105.1123"/><text fill="#000000" font-family="sans-serif" font-size="14" lengthAdjust="spacing" textLength="64.2598" x="1854.1156" y="1127.0782">os_Unistd</text></g><g class="participant participant-head" data-participant="Mman"><rect fill="#E2E2F0" height="33.0679" rx="2.5" ry="2.5" style="stroke:#181818;stroke-width:0.5;" width="77.6858" x="1935.3754" y="5"/><text fill="#000000" font-family="sans-serif" font-size="14" lengthAdjust="spacing" textLength="63.6858" x="1942.3754" y="26.9659">os_Mman</text></g><g class="participant participant-tail" data-participant="Mman"><rect fill="#E2E2F0" height="33.0679" rx="2.5" ry="2.5" style="stroke:#181818;stroke-width:0.5;" width="77.6858" x="1935.3754" y="1105.1123"/><text fill="#000000" font-family="sans-serif" font-size="14" lengthAdjust="spacing" textLength="63.6858" x="1942.3754" y="1127.0782">os_Mman</text></g><g class="participant participant-head" data-participant="Proxy"><rect fill="#E2E2F0" height="33.0679" rx="2.5" ry="2.5" style="stroke:#181818;stroke-width:0.5;" width="183.6514" x="2023.0611" y="5"/><text fill="#000000" font-family="sans-serif" font-size="14" lengthAdjust="spacing" textLength="169.6514" x="2030.0611" y="26.9659">MemoryResourceProxyP1</text></g><g class="participant participant-tail" data-participant="Proxy"><rect fill="#E2E2F0" height="33.0679" rx="2.5" ry="2.5" style="stroke:#181818;stroke-width:0.5;" width="183.6514" x="2023.0611" y="1105.1123"/><text fill="#000000" font-family="sans-serif" font-size="14" lengthAdjust="spacing" textLength="169.6514" x="2030.0611" y="1127.0782">MemoryResourceProxyP1</text></g><g class="participant participant-head" data-participant="AnonymousObject"><rect fill="#E2E2F0" height="33.0679" rx="2.5" ry="2.5" style="stroke:#181818;stroke-width:0.5;" width="237.1591" x="2216.7125" y="5"/><text fill="#000000" font-family="sans-serif" font-size="14" lengthAdjust="spacing" textLength="223.1591" x="2223.7125" y="26.9659">AnonymousSharedMemoryObject</text></g><g class="participant participant-tail" data-participant="AnonymousObject"><rect fill="#E2E2F0" height="33.0679" rx="2.5" ry="2.5" style="stroke:#181818;stroke-width:0.5;" width="237.1591" x="2216.7125" y="1105.1123"/><text fill="#000000" font-family="sans-serif" font-size="14" lengthAdjust="spacing" textLength="223.1591" x="2223.7125" y="1127.0782">AnonymousSharedMemoryObject</text></g><g class="participant participant-head" data-participant="Registry"><rect fill="#E2E2F0" height="33.0679" rx="2.5" ry="2.5" style="stroke:#181818;stroke-width:0.5;" width="199.8913" x="2463.8716" y="5"/><text fill="#000000" font-family="sans-serif" font-size="14" lengthAdjust="spacing" textLength="185.8913" x="2470.8716" y="26.9659">MemoryResourceRegistryP1</text></g><g class="participant participant-tail" data-participant="Registry"><rect fill="#E2E2F0" height="33.0679" rx="2.5" ry="2.5" style="stroke:#181818;stroke-width:0.5;" width="199.8913" x="2463.8716" y="1105.1123"/><text fill="#000000" font-family="sans-serif" font-size="14" lengthAdjust="spacing" textLength="185.8913" x="2470.8716" y="1127.0782">MemoryResourceRegistryP1</text></g><g><title>InstanceP1</title><rect fill="#FFFFFF" height="1039.0443" style="stroke:#181818;stroke-width:1;" width="10" x="43.3789" y="49.0679"/></g><g><title>SharedMemoryFactoryP1</title><rect fill="#FFFFFF" height="1039.0443" style="stroke:#181818;stroke-width:1;" width="10" x="445.0191" y="49.0679"/></g><g><title>SharedMemoryResourceP1</title><rect fill="#FFFFFF" height="31.706" style="stroke:#181818;stroke-width:1;" width="10" x="814.7183" y="136.186"/></g><g><title>SharedMemoryResourceP1</title><rect fill="#FFFFFF" height="158.5301" style="stroke:#181818;stroke-width:1;" width="10" x="814.7183" y="226.304"/></g><g><title>SharedMemoryResourceP1</title><rect fill="#FFFFFF" height="28" style="stroke:#181818;stroke-width:1;" width="10" x="814.7183" y="458.2461"/></g><g><title>SharedMemoryResourceP1</title><rect fill="#FFFFFF" height="31.706" style="stroke:#181818;stroke-width:1;" width="10" x="814.7183" y="524.9521"/></g><g><title>SharedMemoryResourceP1</title><rect fill="#FFFFFF" height="76.6879" style="stroke:#181818;stroke-width:1;" width="10" x="814.7183" y="615.0702"/></g><g><title>SharedMemoryResourceP1</title><rect fill="#FFFFFF" height="14" style="stroke:#181818;stroke-width:1;" width="10" x="814.7183" y="730.4641"/></g><g><title>SharedMemoryResourceP1</title><rect fill="#FFFFFF" height="14" style="stroke:#181818;stroke-width:1;" width="10" x="814.7183" y="776.1701"/></g><g><title>SharedMemoryResourceP1</title><rect fill="#FFFFFF" height="251.2361" style="stroke:#181818;stroke-width:1;" width="10" x="814.7183" y="836.8762"/></g><g><title>TypedMemoryP1</title><rect fill="#FFFFFF" height="312.0602" style="stroke:#181818;stroke-width:1;" width="10" x="1142.3025" y="72.7739"/></g><g><title>tmd_ITypedSharedMemory</title><rect fill="#FFFFFF" height="31.706" style="stroke:#181818;stroke-width:1;" width="10" x="1469.8867" y="289.716"/></g><g><title>os_Stat</title><rect fill="#FFFFFF" height="14" style="stroke:#181818;stroke-width:1;" width="10" x="1607.0623" y="615.0702"/></g><g><title>os_utils_AccessControlList</title><rect fill="#FFFFFF" height="14" style="stroke:#181818;stroke-width:1;" width="10" x="1739.8489" y="677.7581"/></g><g><title>os_Unistd</title><rect fill="#FFFFFF" height="14" style="stroke:#181818;stroke-width:1;" width="10" x="1881.2455" y="776.1701"/></g><g><title>os_Mman</title><rect fill="#FFFFFF" height="63.412" style="stroke:#181818;stroke-width:1;" width="10" x="1969.2182" y="321.4221"/></g><g><title>os_Mman</title><rect fill="#FFFFFF" height="31.706" style="stroke:#181818;stroke-width:1;" width="10" x="1969.2182" y="524.9521"/></g><g><title>os_Mman</title><rect fill="#FFFFFF" height="14" style="stroke:#181818;stroke-width:1;" width="10" x="1969.2182" y="873.5822"/></g><g><title>MemoryResourceProxyP1</title><rect fill="#FFFFFF" height="14" style="stroke:#181818;stroke-width:1;" width="10" x="2109.8868" y="919.2882"/></g><g><title>AnonymousSharedMemoryObject</title><rect fill="#FFFFFF" height="14" style="stroke:#181818;stroke-width:1;" width="10" x="2330.292" y="1010.7002"/></g><g><title>MemoryResourceRegistryP1</title><rect fill="#FFFFFF" height="14" style="stroke:#181818;stroke-width:1;" width="10" x="2558.8173" y="964.9942"/></g><g class="message" data-participant-1="Instance" data-participant-2="Factory"><polygon fill="#181818" points="433.0191,68.7739,443.0191,72.7739,433.0191,76.7739,437.0191,72.7739" style="stroke:#181818;stroke-width:1;"/><line style="stroke:#181818;stroke-width:1;" x1="53.3789" x2="439.0191" y1="72.7739" y2="72.7739"/><text fill="#000000" font-family="sans-serif" font-size="13" lengthAdjust="spacing" textLength="367.6402" x="60.3789" y="66.9649">CreateAnonymous(prefer_typed_memory, permissions, size)</text></g><g class="message" data-participant-1="Factory" data-participant-2="TypedMemory"><polygon fill="#181818" points="1130.3025,100.4799,1140.3025,104.4799,1130.3025,108.4799,1134.3025,104.4799" style="stroke:#181818;stroke-width:1;"/><line style="stroke:#181818;stroke-width:1;" x1="455.0191" x2="1136.3025" y1="104.4799" y2="104.4799"/><text fill="#000000" font-family="sans-serif" font-size="13" lengthAdjust="spacing" textLength="147.7581" x="462.0191" y="98.6709">TypedMemory::Default()</text></g><g class="message" data-participant-1="TypedMemory" data-participant-2="Factory"><polygon fill="#181818" points="466.0191,132.186,456.0191,136.186,466.0191,140.186,462.0191,136.186" style="stroke:#181818;stroke-width:1;"/><line style="stroke:#181818;stroke-width:1;stroke-dasharray:2,2;" x1="460.0191" x2="1141.3025" y1="136.186" y2="136.186"/><text fill="#000000" font-family="sans-serif" font-size="13" lengthAdjust="spacing" textLength="145.8341" x="472.0191" y="130.377">return TypedMemoryP1</text></g><g class="message" data-participant-1="Factory" data-participant-2="Resource"><polygon fill="#181818" points="807.7183,163.892,817.7183,167.892,807.7183,171.892,811.7183,167.892" style="stroke:#181818;stroke-width:1;"/><line style="stroke:#181818;stroke-width:1;" x1="455.0191" x2="813.7183" y1="167.892" y2="167.892"/><text fill="#000000" font-family="sans-serif" font-size="13" lengthAdjust="spacing" textLength="335.6992" x="462.0191" y="162.083">CreateAnonymous(TypedMemoryP1, permissions, size)</text></g><path d="M713.2866,182.892 L775.7456,182.892 L775.7456,192.598 L765.7456,202.598 L713.2866,202.598 L713.2866,182.892" fill="#EEEEEE" style="stroke:#000000;stroke-width:1.5;"/><rect fill="none" height="209.9421" style="stroke:#000000;stroke-width:1.5;" width="1309.7745" x="713.2866" y="182.892"/><text fill="#000000" font-family="sans-serif" font-size="13" font-weight="bold" lengthAdjust="spacing" textLength="17.459" x="728.2866" y="197.789">alt</text><text fill="#000000" font-family="sans-serif" font-size="11" font-weight="bold" lengthAdjust="spacing" textLength="313.9818" x="790.7456" y="196.6509">[typed_memory_ptr_ != nullptr (AllocateInTypedmemory)]</text><g class="message" data-participant-1="Resource" data-participant-2="TypedMemory"><polygon fill="#181818" points="1130.3025,222.304,1140.3025,226.304,1130.3025,230.304,1134.3025,226.304" style="stroke:#181818;stroke-width:1;"/><line style="stroke:#181818;stroke-width:1;" x1="824.7183" x2="1136.3025" y1="226.304" y2="226.304"/><text fill="#000000" font-family="sans-serif" font-size="13" lengthAdjust="spacing" textLength="298.5842" x="831.7183" y="220.495">AllocateAndOpenAnonymousTypedMemory(size)</text></g><g class="message" data-participant-1="TypedMemory" data-participant-2="Resource"><polygon fill="#181818" points="835.7183,254.01,825.7183,258.01,835.7183,262.01,831.7183,258.01" style="stroke:#181818;stroke-width:1;"/><line style="stroke:#181818;stroke-width:1;stroke-dasharray:2,2;" x1="829.7183" x2="1141.3025" y1="258.01" y2="258.01"/><text fill="#000000" font-family="sans-serif" font-size="13" lengthAdjust="spacing" textLength="86.7231" x="841.7183" y="252.201">file_descriptor</text></g><g class="message" data-participant-1="TypedMemory" data-participant-2="ITypedSharedMemory"><polygon fill="#181818" points="1457.8867,285.716,1467.8867,289.716,1457.8867,293.716,1461.8867,289.716" style="stroke:#181818;stroke-width:1;"/><line style="stroke:#181818;stroke-width:1;" x1="1152.3025" x2="1463.8867" y1="289.716" y2="289.716"/><text fill="#000000" font-family="sans-serif" font-size="13" lengthAdjust="spacing" textLength="298.5842" x="1159.3025" y="283.907">AllocateAndOpenAnonymousTypedMemory(size)</text></g><g class="message" data-participant-1="ITypedSharedMemory" data-participant-2="TypedMemory"><polygon fill="#181818" points="1163.3025,317.4221,1153.3025,321.4221,1163.3025,325.4221,1159.3025,321.4221" style="stroke:#181818;stroke-width:1;"/><line style="stroke:#181818;stroke-width:1;stroke-dasharray:2,2;" x1="1157.3025" x2="1473.8867" y1="321.4221" y2="321.4221"/><text fill="#000000" font-family="sans-serif" font-size="13" lengthAdjust="spacing" textLength="116.4411" x="1169.3025" y="315.6131">return shm_handle</text></g><g class="message" data-participant-1="TypedMemory" data-participant-2="Mman"><polygon fill="#181818" points="1957.2182,349.1281,1967.2182,353.1281,1957.2182,357.1281,1961.2182,353.1281" style="stroke:#181818;stroke-width:1;"/><line style="stroke:#181818;stroke-width:1;" x1="1152.3025" x2="1963.2182" y1="353.1281" y2="353.1281"/><text fill="#000000" font-family="sans-serif" font-size="13" lengthAdjust="spacing" textLength="253.7993" x="1159.3025" y="347.3191">shm_open_handle(shm_handle, O_RDWR)</text></g><g class="message" data-participant-1="Mman" data-participant-2="TypedMemory"><polygon fill="#181818" points="1158.3025,380.8341,1148.3025,384.8341,1158.3025,388.8341,1154.3025,384.8341" style="stroke:#181818;stroke-width:1;"/><line style="stroke:#181818;stroke-width:1;stroke-dasharray:2,2;" x1="1152.3025" x2="1973.2182" y1="384.8341" y2="384.8341"/><text fill="#000000" font-family="sans-serif" font-size="13" lengthAdjust="spacing" textLength="126.5421" x="1164.3025" y="379.0251">return file descriptor</text></g><path d="M703.2866,406.8341 L765.7456,406.8341 L765.7456,416.5401 L755.7456,426.5401 L703.2866,426.5401 L703.2866,406.8341" fill="#EEEEEE" style="stroke:#000000;stroke-width:1.5;"/><rect fill="none" height="391.336" style="stroke:#000000;stroke-width:1.5;" width="1319.7745" x="703.2866" y="406.8341"/><text fill="#000000" font-family="sans-serif" font-size="13" font-weight="bold" lengthAdjust="spacing" textLength="17.459" x="718.2866" y="421.7311">alt</text><text fill="#000000" font-family="sans-serif" font-size="11" font-weight="bold" lengthAdjust="spacing" textLength="464.9996" x="780.7456" y="420.593">[AllocateInTypedmemory failed or AllocateInSysram (typed_memory_ptr_ == nullptr)]</text><g class="message" data-participant-1="Resource" data-participant-2="Resource"><line style="stroke:#181818;stroke-width:1;" x1="824.7183" x2="866.7183" y1="450.2461" y2="450.2461"/><line style="stroke:#181818;stroke-width:1;" x1="866.7183" x2="866.7183" y1="450.2461" y2="463.2461"/><line style="stroke:#181818;stroke-width:1;" x1="825.7183" x2="866.7183" y1="463.2461" y2="463.2461"/><polygon fill="#181818" points="835.7183,459.2461,825.7183,463.2461,835.7183,467.2461,831.7183,463.2461" style="stroke:#181818;stroke-width:1;"/><text fill="#000000" font-family="sans-serif" font-size="13" lengthAdjust="spacing" textLength="307.3983" x="831.7183" y="444.4371">mode = calcStatModeForPermissions(permissions)</text></g><g class="message" data-participant-1="Resource" data-participant-2="Mman"><polygon fill="#181818" points="1957.2182,520.9521,1967.2182,524.9521,1957.2182,528.9521,1961.2182,524.9521" style="stroke:#181818;stroke-width:1;"/><line style="stroke:#181818;stroke-width:1;" x1="824.7183" x2="1963.2182" y1="524.9521" y2="524.9521"/><text fill="#000000" font-family="sans-serif" font-size="13" lengthAdjust="spacing" textLength="383.5004" x="831.7183" y="519.1431">shm_open(SHM_ANON, O_RDWR | O_CREAT | O_ANON, mode)</text></g><g class="message" data-participant-1="Mman" data-participant-2="Resource"><polygon fill="#181818" points="830.7183,552.6582,820.7183,556.6582,830.7183,560.6582,826.7183,556.6582" style="stroke:#181818;stroke-width:1;"/><line style="stroke:#181818;stroke-width:1;stroke-dasharray:2,2;" x1="824.7183" x2="1973.2182" y1="556.6582" y2="556.6582"/><text fill="#000000" font-family="sans-serif" font-size="13" lengthAdjust="spacing" textLength="86.7231" x="836.7183" y="550.8492">file_descriptor</text></g><path d="M713.2866,571.6582 L775.7456,571.6582 L775.7456,581.3642 L765.7456,591.3642 L713.2866,591.3642 L713.2866,571.6582" fill="#EEEEEE" style="stroke:#000000;stroke-width:1.5;"/><rect fill="none" height="128.0999" style="stroke:#000000;stroke-width:1.5;" width="1133.829" x="713.2866" y="571.6582"/><text fill="#000000" font-family="sans-serif" font-size="13" font-weight="bold" lengthAdjust="spacing" textLength="17.459" x="728.2866" y="586.5552">alt</text><text fill="#000000" font-family="sans-serif" font-size="11" font-weight="bold" lengthAdjust="spacing" textLength="140.304" x="790.7456" y="585.4171">[mode == world-readable]</text><g class="message" data-participant-1="Resource" data-participant-2="Stat"><polygon fill="#181818" points="1595.0623,611.0702,1605.0623,615.0702,1595.0623,619.0702,1599.0623,615.0702" style="stroke:#181818;stroke-width:1;"/><line style="stroke:#181818;stroke-width:1;" x1="824.7183" x2="1601.0623" y1="615.0702" y2="615.0702"/><text fill="#000000" font-family="sans-serif" font-size="13" lengthAdjust="spacing" textLength="183.4952" x="831.7183" y="609.2612">fchmod(file_descriptor, mode)</text></g><g class="message" data-participant-1="Stat" data-participant-2="Resource"><polygon fill="#181818" points="835.7183,625.0702,825.7183,629.0702,835.7183,633.0702,831.7183,629.0702" style="stroke:#181818;stroke-width:1;"/><line style="stroke:#181818;stroke-width:1;stroke-dasharray:2,2;" x1="829.7183" x2="1611.0623" y1="629.0702" y2="629.0702"/></g><line style="stroke:#000000;stroke-width:1;stroke-dasharray:2,2;" x1="713.2866" x2="1847.1156" y1="638.0702" y2="638.0702"/><text fill="#000000" font-family="sans-serif" font-size="11" font-weight="bold" lengthAdjust="spacing" textLength="148.2899" x="718.2866" y="649.8291">[mode == UserPermissions]</text><g class="message" data-participant-1="Resource" data-participant-2="ACL"><polygon fill="#181818" points="1727.8489,673.7581,1737.8489,677.7581,1727.8489,681.7581,1731.8489,677.7581" style="stroke:#181818;stroke-width:1;"/><line style="stroke:#181818;stroke-width:1;" x1="824.7183" x2="1733.8489" y1="677.7581" y2="677.7581"/><text fill="#000000" font-family="sans-serif" font-size="13" lengthAdjust="spacing" textLength="276.6273" x="831.7183" y="671.9491">AllowUser(file_descriptor, os::Acl::Permission)</text></g><g class="message" data-participant-1="ACL" data-participant-2="Resource"><polygon fill="#181818" points="830.7183,687.7581,820.7183,691.7581,830.7183,695.7581,826.7183,691.7581" style="stroke:#181818;stroke-width:1;"/><line style="stroke:#181818;stroke-width:1;stroke-dasharray:2,2;" x1="824.7183" x2="1743.8489" y1="691.7581" y2="691.7581"/></g><g class="message" data-participant-1="Resource" data-participant-2="Mman"><polygon fill="#181818" points="1962.2182,726.4641,1972.2182,730.4641,1962.2182,734.4641,1966.2182,730.4641" style="stroke:#181818;stroke-width:1;"/><line style="stroke:#181818;stroke-width:1;" x1="824.7183" x2="1968.2182" y1="730.4641" y2="730.4641"/><text fill="#000000" font-family="sans-serif" font-size="13" lengthAdjust="spacing" textLength="328.9133" x="831.7183" y="724.6551">shm_ctl(fd, SHMCTL_ANON | SHMCTL_SEAL, 0UL, size)</text></g><g class="message" data-participant-1="Mman" data-participant-2="Resource"><polygon fill="#181818" points="830.7183,740.4641,820.7183,744.4641,830.7183,748.4641,826.7183,744.4641" style="stroke:#181818;stroke-width:1;"/><line style="stroke:#181818;stroke-width:1;stroke-dasharray:2,2;" x1="824.7183" x2="1973.2182" y1="744.4641" y2="744.4641"/></g><g class="message" data-participant-1="Resource" data-participant-2="Unistd"><polygon fill="#181818" points="1869.2455,772.1701,1879.2455,776.1701,1869.2455,780.1701,1873.2455,776.1701" style="stroke:#181818;stroke-width:1;"/><line style="stroke:#181818;stroke-width:1;" x1="824.7183" x2="1875.2455" y1="776.1701" y2="776.1701"/><text fill="#000000" font-family="sans-serif" font-size="13" lengthAdjust="spacing" textLength="180.5702" x="831.7183" y="770.3611">ftruncate(file_descriptor, size)</text></g><g class="message" data-participant-1="Unistd" data-participant-2="Resource"><polygon fill="#181818" points="830.7183,786.1701,820.7183,790.1701,830.7183,794.1701,826.7183,790.1701" style="stroke:#181818;stroke-width:1;"/><line style="stroke:#181818;stroke-width:1;stroke-dasharray:2,2;" x1="824.7183" x2="1885.2455" y1="790.1701" y2="790.1701"/></g><g class="message" data-participant-1="Resource" data-participant-2="Resource"><line style="stroke:#181818;stroke-width:1;" x1="819.7183" x2="866.7183" y1="823.8762" y2="823.8762"/><line style="stroke:#181818;stroke-width:1;" x1="866.7183" x2="866.7183" y1="823.8762" y2="836.8762"/><line style="stroke:#181818;stroke-width:1;" x1="825.7183" x2="866.7183" y1="836.8762" y2="836.8762"/><polygon fill="#181818" points="835.7183,832.8762,825.7183,836.8762,835.7183,840.8762,831.7183,836.8762" style="stroke:#181818;stroke-width:1;"/><text fill="#000000" font-family="sans-serif" font-size="13" lengthAdjust="spacing" textLength="240.8642" x="831.7183" y="818.0671">GetOwnerUidAndSizeOf(file_descriptor)</text></g><g class="message" data-participant-1="Resource" data-participant-2="Mman"><polygon fill="#181818" points="1957.2182,869.5822,1967.2182,873.5822,1957.2182,877.5822,1961.2182,873.5822" style="stroke:#181818;stroke-width:1;"/><line style="stroke:#181818;stroke-width:1;" x1="824.7183" x2="1963.2182" y1="873.5822" y2="873.5822"/><text fill="#000000" font-family="sans-serif" font-size="13" lengthAdjust="spacing" textLength="207.6882" x="831.7183" y="867.7732">mmap(map memory into process)</text></g><g class="message" data-participant-1="Mman" data-participant-2="Resource"><polygon fill="#181818" points="835.7183,883.5822,825.7183,887.5822,835.7183,891.5822,831.7183,887.5822" style="stroke:#181818;stroke-width:1;"/><line style="stroke:#181818;stroke-width:1;stroke-dasharray:2,2;" x1="829.7183" x2="1973.2182" y1="887.5822" y2="887.5822"/></g><g class="message" data-participant-1="Resource" data-participant-2="Proxy"><polygon fill="#181818" points="2097.8868,915.2882,2107.8868,919.2882,2097.8868,923.2882,2101.8868,919.2882" style="stroke:#181818;stroke-width:1;"/><line style="stroke:#181818;stroke-width:1;" x1="824.7183" x2="2103.8868" y1="919.2882" y2="919.2882"/><text fill="#000000" font-family="sans-serif" font-size="13" lengthAdjust="spacing" textLength="135.3821" x="831.7183" y="913.4792">Instantiate(Unique ID)</text></g><g class="message" data-participant-1="Proxy" data-participant-2="Resource"><polygon fill="#181818" points="835.7183,929.2882,825.7183,933.2882,835.7183,937.2882,831.7183,933.2882" style="stroke:#181818;stroke-width:1;"/><line style="stroke:#181818;stroke-width:1;stroke-dasharray:2,2;" x1="829.7183" x2="2113.8868" y1="933.2882" y2="933.2882"/></g><g class="message" data-participant-1="Resource" data-participant-2="Registry"><polygon fill="#181818" points="2546.8173,960.9942,2556.8173,964.9942,2546.8173,968.9942,2550.8173,964.9942" style="stroke:#181818;stroke-width:1;"/><line style="stroke:#181818;stroke-width:1;" x1="824.7183" x2="2552.8173" y1="964.9942" y2="964.9942"/><text fill="#000000" font-family="sans-serif" font-size="13" lengthAdjust="spacing" textLength="188.2012" x="831.7183" y="959.1852">insert_resource(uniqueID, this)</text></g><g class="message" data-participant-1="Registry" data-participant-2="Resource"><polygon fill="#181818" points="835.7183,974.9942,825.7183,978.9942,835.7183,982.9942,831.7183,978.9942" style="stroke:#181818;stroke-width:1;"/><line style="stroke:#181818;stroke-width:1;stroke-dasharray:2,2;" x1="829.7183" x2="2562.8173" y1="978.9942" y2="978.9942"/></g><g class="message" data-participant-1="Resource" data-participant-2="AnonymousObject"><polygon fill="#181818" points="2318.292,1006.7002,2328.292,1010.7002,2318.292,1014.7002,2322.292,1010.7002" style="stroke:#181818;stroke-width:1;"/><line style="stroke:#181818;stroke-width:1;" x1="824.7183" x2="2324.292" y1="1010.7002" y2="1010.7002"/><text fill="#000000" font-family="sans-serif" font-size="13" lengthAdjust="spacing" textLength="575.8484" x="831.7183" y="1004.8912">initializeInternalsInSharedMemory() - MemoryResourceProxyP1, alreadyAllocatedBytes, mutex</text></g><g class="message" data-participant-1="AnonymousObject" data-participant-2="Resource"><polygon fill="#181818" points="835.7183,1020.7002,825.7183,1024.7002,835.7183,1028.7002,831.7183,1024.7002" style="stroke:#181818;stroke-width:1;"/><line style="stroke:#181818;stroke-width:1;stroke-dasharray:2,2;" x1="829.7183" x2="2334.292" y1="1024.7002" y2="1024.7002"/></g><g class="message" data-participant-1="Resource" data-participant-2="Factory"><polygon fill="#181818" points="466.0191,1052.4062,456.0191,1056.4062,466.0191,1060.4062,462.0191,1056.4062" style="stroke:#181818;stroke-width:1;"/><line style="stroke:#181818;stroke-width:1;stroke-dasharray:2,2;" x1="460.0191" x2="813.7183" y1="1056.4062" y2="1056.4062"/><text fill="#000000" font-family="sans-serif" font-size="13" lengthAdjust="spacing" textLength="51.207" x="472.0191" y="1050.5972">instance</text></g><g class="message" data-participant-1="Factory" data-participant-2="Instance"><polygon fill="#181818" points="59.3789,1084.1123,49.3789,1088.1123,59.3789,1092.1123,55.3789,1088.1123" style="stroke:#181818;stroke-width:1;"/><line style="stroke:#181818;stroke-width:1;stroke-dasharray:2,2;" x1="53.3789" x2="449.0191" y1="1088.1123" y2="1088.1123"/><text fill="#000000" font-family="sans-serif" font-size="13" lengthAdjust="spacing" textLength="51.207" x="65.3789" y="1082.3032">instance</text></g><!--SRC=[dLRTZjig4BxtKz2huqY9rDvQsafkjZqdKhQfabtrqc9jqd1aWmkusrHz-0vWRB1nLcgaNSFCCFFD7ym_w4I-TuIL15KKVnEuGMSk46QSNHlUITIGXeihmdNDIwmePqdIOg5eILlC5DengJ2S_l8EOJdi0f7J1GjIFHWzdt2fu6Eb-ysYy958tWcds-q2ySThwwIjb4S815LJ5Jl3z2qOp3Dgw26NnKbXfKNrDvbnEqLhMUHbIQJSSgO4h_TKcWFvTZ-LVcB0gpJJhcRg7XhCD5j_0zuaA8B_x7qsoq0qT-dptJey_qzA2yknBUc6bIFv1Y1TSDqkCJ_87ls15HcpFb1SPXF7GfltZfYXhI0WD818Mq7EH1HAvw6mzRP6BH4DbH8AJgwHfB_8ohFePxbNgoruv2pOPFVaZBjQfQl48wEDZqeGrGaMLfJlvL1_laL7d3iLw8cxarGaeZt1DPIh5ukYLQ90R-uGw-eQrYZDRJEI7JDMh9XMc23uELMpYBXZEQiEBM43LayejT2qcWWqJPx6Rup0cTQag8Wi1MqXFdFfzv5U-sjKaRRL_4YFRwPnw3CjBqrnmQogYJdf9MD1zy0thHbnJzCpevU39xtoTBIpHeVYUF_rkBAXD9s-X4v74qsYwK4S87Wqloich367X5MsUw7AedM4pXXCLmXUWP5_kahzDAJpkhmRwd8rgxwnDXfU4NI7IboN-X9zWEqdBhwCJP5w3NAp_k8zCpCTfY8z_VTGv9yFdrq6q6zOR8yVyqUpiYmDSibsFFz31cztmIjv2ntKYR7XkaClNDJL1cwM2Z_tPJfrL8SJh9ONE9DEZFikBRiLSCmJvwZctVFT6pWU-k44gIKPa3z9ugSt2XrUHzl-Brfw3fxBBClBEij6HH5Vz1lhYB1-5Qyl7qk2SSKqoN9DbQfEpzKQGLbj7_UcVA2E-jtfOxvVexTFUtVHBuT-LZ-tIyC7OwS7oBmI7TDDEe_VQzO7QZ-9Q5e_djp2v4altp3nQ-1VeWulZ8WdMi5rVm9yX_CKzog9DdWopqJJu3Q5FpUZKgOuQWNNWvYdnRJSFDBJfWmCc94gwoSRHNLumMqObD7ktbDj9o_pVr6vbPa4nCvH6K26obU5w9bfPupixjT8NQWCGj6FNcwnQ6ySqe9U2qS-RPc2NpMaOCSK4GpN4gvvxybBLsWJdpdNS4VfE-dgteVgmrKHc6kQJf6V8-Rfc3dPBtemFHSatn_Pg1iyXubCpnWzqMF7ojIZkMdLdm3wety0]--></g></svg>