<svg xmlns="http://www.w3.org/2000/svg" xmlns:xlink="http://www.w3.org/1999/xlink" contentStyleType="text/css" data-diagram-type="CLASS" height="819px" preserveAspectRatio="none" style="width:1760px;height:819px;background:#FFFFFF;" version="1.1" viewBox="0 0 1760 819" width="1760px" zoomAndPan="magnify"><defs/><g><!--class Proxy--><g class="entity" data-entity="Proxy" data-source-line="4" data-uid="ent0002" id="entity_Proxy"><rect fill="#F1F1F1" height="86.1358" rx="2.5" ry="2.5" style="stroke:#181818;stroke-width:0.5;" width="341.3568" x="1040" y="125.5"/><ellipse cx="1055" cy="141.5" fill="#ADD1B2" rx="11" ry="11" style="stroke:#181818;stroke-width:1;"/><path d="M1057.9688,147.1406 Q1057.3906,147.4375 1056.75,147.5781 Q1056.1094,147.7344 1055.4063,147.7344 Q1052.9063,147.7344 1051.5781,146.0938 Q1050.2656,144.4375 1050.2656,141.3125 Q1050.2656,138.1875 1051.5781,136.5313 Q1052.9063,134.875 1055.4063,134.875 Q1056.1094,134.875 1056.75,135.0313 Q1057.4063,135.1875 1057.9688,135.4844 L1057.9688,138.2031 Q1057.3438,137.625 1056.75,137.3594 Q1056.1563,137.0781 1055.5313,137.0781 Q1054.1875,137.0781 1053.5,138.1563 Q1052.8125,139.2188 1052.8125,141.3125 Q1052.8125,143.4063 1053.5,144.4844 Q1054.1875,145.5469 1055.5313,145.5469 Q1056.1563,145.5469 1056.75,145.2813 Q1057.3438,145 1057.9688,144.4219 L1057.9688,147.1406 Z " fill="#000000"/><text fill="#000000" font-family="sans-serif" font-size="14" lengthAdjust="spacing" textLength="309.3568" x="1069" y="146.932">bmw::memory::shared::MemoryResourceProxy</text><line style="stroke:#181818;stroke-width:0.5;" x1="1041" x2="1380.3568" y1="157.5" y2="157.5"/><text fill="#000000" font-family="sans-serif" font-size="14" lengthAdjust="spacing" textLength="42.5178" x="1046" y="176.4659">Notes:</text><text fill="#000000" font-family="sans-serif" font-size="14" lengthAdjust="spacing" textLength="75.8797" x="1046" y="195.5339">Unchanged</text><line style="stroke:#181818;stroke-width:0.5;" x1="1041" x2="1380.3568" y1="203.6358" y2="203.6358"/></g><!--class Registry--><g class="entity" data-entity="Registry" data-source-line="11" data-uid="ent0003" id="entity_Registry"><rect fill="#F1F1F1" height="322.9508" rx="2.5" ry="2.5" style="stroke:#181818;stroke-width:0.5;" width="707.0833" x="298" y="7"/><ellipse cx="484.4932" cy="23" fill="#ADD1B2" rx="11" ry="11" style="stroke:#181818;stroke-width:1;"/><path d="M487.462,28.6406 Q486.8839,28.9375 486.2432,29.0781 Q485.6026,29.2344 484.8995,29.2344 Q482.3995,29.2344 481.0714,27.5938 Q479.7589,25.9375 479.7589,22.8125 Q479.7589,19.6875 481.0714,18.0313 Q482.3995,16.375 484.8995,16.375 Q485.6026,16.375 486.2432,16.5313 Q486.8995,16.6875 487.462,16.9844 L487.462,19.7031 Q486.837,19.125 486.2432,18.8594 Q485.6495,18.5781 485.0245,18.5781 Q483.6807,18.5781 482.9932,19.6563 Q482.3057,20.7188 482.3057,22.8125 Q482.3057,24.9063 482.9932,25.9844 Q483.6807,27.0469 485.0245,27.0469 Q485.6495,27.0469 486.2432,26.7813 Q486.837,26.5 487.462,25.9219 L487.462,28.6406 Z " fill="#000000"/><text fill="#000000" font-family="sans-serif" font-size="14" lengthAdjust="spacing" textLength="325.5968" x="504.9932" y="28.432">bmw::memory::shared::MemoryResourceRegistry</text><line style="stroke:#181818;stroke-width:0.5;" x1="299" x2="1004.0833" y1="39" y2="39"/><text fill="#000000" font-family="sans-serif" font-size="14" lengthAdjust="spacing" textLength="237.7751" x="304" y="57.9659">known_regions: MemoryRegionMap</text><line style="stroke:#181818;stroke-width:1;" x1="299" x2="1004.0833" y1="66.0679" y2="66.0679"/><ellipse cx="309" cy="81.1019" fill="#84BE84" rx="3" ry="3" style="stroke:#038048;stroke-width:1;"/><text fill="#000000" font-family="sans-serif" font-size="14" lengthAdjust="spacing" textLength="489.48" x="318" y="85.0339">insert_resource(std::pair&lt;std::unit64_t, ManagedMemoryResource*&gt;): void</text><ellipse cx="309" cy="100.1698" fill="#84BE84" rx="3" ry="3" style="stroke:#038048;stroke-width:1;"/><text fill="#000000" font-family="sans-serif" font-size="14" lengthAdjust="spacing" textLength="302.2728" x="318" y="104.1018">remove_resource(std::uint64_t identifier): void</text><ellipse cx="309" cy="119.2377" fill="#84BE84" rx="3" ry="3" style="stroke:#038048;stroke-width:1;"/><text fill="#000000" font-family="sans-serif" font-size="14" lengthAdjust="spacing" textLength="681.0833" x="318" y="123.1697">GetBoundsFromAddress(uintptr_t): optional&lt;pair&lt;MemoryRegionBounds, MemoryResourceIdentifier&gt;&gt;</text><ellipse cx="309" cy="138.3056" fill="#84BE84" rx="3" ry="3" style="stroke:#038048;stroke-width:1;"/><text fill="#000000" font-family="sans-serif" font-size="14" lengthAdjust="spacing" textLength="497.4321" x="318" y="142.2376">GetBoundsFromIdentifier(uint64 identifier): Result&lt;MemoryRegionBounds&gt;</text><line style="stroke:#181818;stroke-width:1;" x1="299" x2="1004.0833" y1="150.3396" y2="150.3396"/><text fill="#000000" font-family="sans-serif" font-size="14" lengthAdjust="spacing" textLength="42.5178" x="318" y="169.3055">Notes:</text><ellipse cx="309" cy="184.4415" fill="#000000" rx="3" ry="3" style="stroke:#000000;stroke-width:1;"/><text fill="#000000" font-family="sans-serif" font-size="14" lengthAdjust="spacing" textLength="488.2903" x="318" y="188.3734">known_regions is a map for memory regions (i.e. storing the start and end</text><text fill="#000000" font-family="sans-serif" font-size="14" lengthAdjust="spacing" textLength="489.802" x="318" y="207.4414">addresses for each memory region) which provides lock-free access to one</text><text fill="#000000" font-family="sans-serif" font-size="14" lengthAdjust="spacing" textLength="259.601" x="318" y="226.5093">writer and multiple concurrent readers.</text><ellipse cx="309" cy="241.6452" fill="#000000" rx="3" ry="3" style="stroke:#000000;stroke-width:1;"/><text fill="#000000" font-family="sans-serif" font-size="14" lengthAdjust="spacing" textLength="474.0242" x="318" y="245.5772">GetBoundsFromAddress() checks if the passed pointer is within a known</text><text fill="#000000" font-family="sans-serif" font-size="14" lengthAdjust="spacing" textLength="462.4882" x="318" y="264.6451">memory region. If so, returns the bounds of that memory region. Else,</text><text fill="#000000" font-family="sans-serif" font-size="14" lengthAdjust="spacing" textLength="461.9282" x="318" y="283.713">returns pair of null ptrs. We return memory bounds rather than a bool</text><text fill="#000000" font-family="sans-serif" font-size="14" lengthAdjust="spacing" textLength="463.7762" x="318" y="302.7809">value indicating whether the OffsetPtr is within the memory bounds to</text><text fill="#000000" font-family="sans-serif" font-size="14" lengthAdjust="spacing" textLength="288.4829" x="318" y="321.8489">avoid explicitly coupling it with an OffsetPtr.</text></g><!--class SharedResource--><g class="entity" data-entity="SharedResource" data-source-line="30" data-uid="ent0004" id="entity_SharedResource"><rect fill="#F1F1F1" height="105.2038" rx="2.5" ry="2.5" style="stroke:#181818;stroke-width:0.5;" width="938.7968" x="7" y="631.5"/><ellipse cx="312.864" cy="647.5" fill="#ADD1B2" rx="11" ry="11" style="stroke:#181818;stroke-width:1;"/><path d="M315.8327,653.1406 Q315.2546,653.4375 314.614,653.5781 Q313.9734,653.7344 313.2702,653.7344 Q310.7702,653.7344 309.4421,652.0938 Q308.1296,650.4375 308.1296,647.3125 Q308.1296,644.1875 309.4421,642.5313 Q310.7702,640.875 313.2702,640.875 Q313.9734,640.875 314.614,641.0313 Q315.2702,641.1875 315.8327,641.4844 L315.8327,644.2031 Q315.2077,643.625 314.614,643.3594 Q314.0202,643.0781 313.3952,643.0781 Q312.0515,643.0781 311.364,644.1563 Q310.6765,645.2188 310.6765,647.3125 Q310.6765,649.4063 311.364,650.4844 Q312.0515,651.5469 313.3952,651.5469 Q314.0202,651.5469 314.614,651.2813 Q315.2077,651 315.8327,650.4219 L315.8327,653.1406 Z " fill="#000000"/><text fill="#000000" font-family="sans-serif" font-size="14" lengthAdjust="spacing" textLength="318.5688" x="333.364" y="652.932">bmw::memory::shared::SharedMemoryResource</text><line style="stroke:#181818;stroke-width:0.5;" x1="8" x2="944.7968" y1="663.5" y2="663.5"/><rect fill="#F24D5C" height="6" style="stroke:#C82930;stroke-width:1;" width="6" x="15" y="675.534"/><text fill="#000000" font-family="sans-serif" font-size="14" lengthAdjust="spacing" textLength="912.7968" x="27" y="682.4659">Create(StringLiteral, InitializeCallback, std::size_t, UserPermissions permissions = {}) noexcept: std::shared_ptr&lt;ManagedMemoryResource&gt;</text><line style="stroke:#181818;stroke-width:1;" x1="8" x2="944.7968" y1="690.5679" y2="690.5679"/><text fill="#000000" font-family="sans-serif" font-size="14" lengthAdjust="spacing" textLength="42.5178" x="13" y="709.5339">Notes:</text><text fill="#000000" font-family="sans-serif" font-size="14" lengthAdjust="spacing" textLength="736.8456" x="13" y="728.6018">Calls MemoryResourceRegistry::insert_resource() in Create() after mapping the shared memory into the process.</text></g><!--class HeapResource--><g class="entity" data-entity="HeapResource" data-source-line="37" data-uid="ent0005" id="entity_HeapResource"><rect fill="#F1F1F1" height="105.2038" rx="2.5" ry="2.5" style="stroke:#181818;stroke-width:0.5;" width="370.9026" x="695" y="390"/><ellipse cx="724.4359" cy="406" fill="#ADD1B2" rx="11" ry="11" style="stroke:#181818;stroke-width:1;"/><path d="M727.4046,411.6406 Q726.8265,411.9375 726.1859,412.0781 Q725.5453,412.2344 724.8421,412.2344 Q722.3421,412.2344 721.014,410.5938 Q719.7015,408.9375 719.7015,405.8125 Q719.7015,402.6875 721.014,401.0313 Q722.3421,399.375 724.8421,399.375 Q725.5453,399.375 726.1859,399.5313 Q726.8421,399.6875 727.4046,399.9844 L727.4046,402.7031 Q726.7796,402.125 726.1859,401.8594 Q725.5921,401.5781 724.9671,401.5781 Q723.6234,401.5781 722.9359,402.6563 Q722.2484,403.7188 722.2484,405.8125 Q722.2484,407.9063 722.9359,408.9844 Q723.6234,410.0469 724.9671,410.0469 Q725.5921,410.0469 726.1859,409.7813 Q726.7796,409.5 727.4046,408.9219 L727.4046,411.6406 Z " fill="#000000"/><text fill="#000000" font-family="sans-serif" font-size="14" lengthAdjust="spacing" textLength="306.8228" x="741.6439" y="411.432">bmw::memory::shared::HeapMemoryResource</text><line style="stroke:#181818;stroke-width:0.5;" x1="696" x2="1064.9026" y1="422" y2="422"/><line style="stroke:#181818;stroke-width:1;" x1="696" x2="1064.9026" y1="430" y2="430"/><text fill="#000000" font-family="sans-serif" font-size="14" lengthAdjust="spacing" textLength="42.5178" x="701" y="448.9659">Notes:</text><text fill="#000000" font-family="sans-serif" font-size="14" lengthAdjust="spacing" textLength="283.8209" x="701" y="468.0339">Since we don't want to bounds check, don't</text><text fill="#000000" font-family="sans-serif" font-size="14" lengthAdjust="spacing" textLength="358.9026" x="701" y="487.1018">call MemoryResourceRegistry::insert_memory_range().</text></g><!--class OffsetPtr--><g class="entity" data-entity="OffsetPtr" data-source-line="44" data-uid="ent0006" id="entity_OffsetPtr"><rect fill="#F1F1F1" height="257.7471" rx="2.5" ry="2.5" style="stroke:#181818;stroke-width:0.5;" width="431.4665" x="1076" y="555"/><ellipse cx="1145.0894" cy="571" fill="#ADD1B2" rx="11" ry="11" style="stroke:#181818;stroke-width:1;"/><path d="M1148.0582,576.6406 Q1147.4801,576.9375 1146.8394,577.0781 Q1146.1988,577.2344 1145.4957,577.2344 Q1142.9957,577.2344 1141.6676,575.5938 Q1140.3551,573.9375 1140.3551,570.8125 Q1140.3551,567.6875 1141.6676,566.0313 Q1142.9957,564.375 1145.4957,564.375 Q1146.1988,564.375 1146.8394,564.5313 Q1147.4957,564.6875 1148.0582,564.9844 L1148.0582,567.7031 Q1147.4332,567.125 1146.8394,566.8594 Q1146.2457,566.5781 1145.6207,566.5781 Q1144.2769,566.5781 1143.5894,567.6563 Q1142.9019,568.7188 1142.9019,570.8125 Q1142.9019,572.9063 1143.5894,573.9844 Q1144.2769,575.0469 1145.6207,575.0469 Q1146.2457,575.0469 1146.8394,574.7813 Q1147.4332,574.5 1148.0582,573.9219 L1148.0582,576.6406 Z " fill="#000000"/><text fill="#000000" font-family="sans-serif" font-size="14" lengthAdjust="spacing" textLength="215.7112" x="1165.5894" y="576.432">bmw::memory::shared::OffsetPtr</text><rect fill="#FFFFFF" height="18.3441" style="stroke:#181818;stroke-width:1;stroke-dasharray:2,2;" width="67.0764" x="1443.3901" y="552"/><text fill="#000000" font-family="sans-serif" font-size="12" font-style="italic" lengthAdjust="spacing" textLength="65.0764" x="1444.3901" y="565.8281">PointedType</text><line style="stroke:#181818;stroke-width:0.5;" x1="1077" x2="1506.4665" y1="587" y2="587"/><ellipse cx="1087" cy="602.034" fill="#84BE84" rx="3" ry="3" style="stroke:#038048;stroke-width:1;"/><text fill="#000000" font-family="sans-serif" font-size="14" lengthAdjust="spacing" textLength="166.5014" x="1096" y="605.9659">get() const: PointedType*</text><ellipse cx="1087" cy="621.1019" fill="#84BE84" rx="3" ry="3" style="stroke:#038048;stroke-width:1;"/><text fill="#000000" font-family="sans-serif" font-size="14" lengthAdjust="spacing" textLength="202.5652" x="1096" y="625.0339">get(size_t) const: PointedType*</text><ellipse cx="1087" cy="640.1698" fill="#84BE84" rx="3" ry="3" style="stroke:#038048;stroke-width:1;"/><text fill="#000000" font-family="sans-serif" font-size="14" lengthAdjust="spacing" textLength="318.2888" x="1096" y="644.1018">get&lt;ExplicitPointedType&gt;(): ExplicitPointedType*</text><ellipse cx="1087" cy="659.2377" fill="#84BE84" rx="3" ry="3" style="stroke:#038048;stroke-width:1;"/><text fill="#000000" font-family="sans-serif" font-size="14" lengthAdjust="spacing" textLength="271.1369" x="1096" y="663.1697">GetWithoutBoundsCheck(): PointedType*</text><line style="stroke:#181818;stroke-width:1;" x1="1077" x2="1506.4665" y1="671.2717" y2="671.2717"/><text fill="#000000" font-family="sans-serif" font-size="14" lengthAdjust="spacing" textLength="42.5178" x="1082" y="690.2376">Notes:</text><text fill="#000000" font-family="sans-serif" font-size="14" lengthAdjust="spacing" textLength="367.4986" x="1082" y="709.3055">If EnableOffsetPtrBoundsChecking() has not been called</text><text fill="#000000" font-family="sans-serif" font-size="14" lengthAdjust="spacing" textLength="368.4785" x="1082" y="728.3734">with enable=false, when get() is called, gets the memory</text><text fill="#000000" font-family="sans-serif" font-size="14" lengthAdjust="spacing" textLength="392.3485" x="1082" y="747.4414">bounds of the region in which the offset pointer is allocated</text><text fill="#000000" font-family="sans-serif" font-size="14" lengthAdjust="spacing" textLength="419.4665" x="1082" y="766.5093">with MemoryResourceRegistry::get_bounds_for(this). If non-null</text><text fill="#000000" font-family="sans-serif" font-size="14" lengthAdjust="spacing" textLength="385.1106" x="1082" y="785.5772">bounds are returned, terminates if pointed-to-object is not</text><text fill="#000000" font-family="sans-serif" font-size="14" lengthAdjust="spacing" textLength="355.4306" x="1082" y="804.6451">inside memory bounds. Otherwise, returns as normal.</text></g><!--class PolymorphicOffsetPtrAllocator--><g class="entity" data-entity="PolymorphicOffsetPtrAllocator" data-source-line="59" data-uid="ent0007" id="entity_PolymorphicOffsetPtrAllocator"><rect fill="#F1F1F1" height="86.1358" rx="2.5" ry="2.5" style="stroke:#181818;stroke-width:0.5;" width="427.659" x="1172.5" y="399.5"/><ellipse cx="1187.5" cy="415.5" fill="#ADD1B2" rx="11" ry="11" style="stroke:#181818;stroke-width:1;"/><path d="M1190.4688,421.1406 Q1189.8906,421.4375 1189.25,421.5781 Q1188.6094,421.7344 1187.9063,421.7344 Q1185.4063,421.7344 1184.0781,420.0938 Q1182.7656,418.4375 1182.7656,415.3125 Q1182.7656,412.1875 1184.0781,410.5313 Q1185.4063,408.875 1187.9063,408.875 Q1188.6094,408.875 1189.25,409.0313 Q1189.9063,409.1875 1190.4688,409.4844 L1190.4688,412.2031 Q1189.8438,411.625 1189.25,411.3594 Q1188.6563,411.0781 1188.0313,411.0781 Q1186.6875,411.0781 1186,412.1563 Q1185.3125,413.2188 1185.3125,415.3125 Q1185.3125,417.4063 1186,418.4844 Q1186.6875,419.5469 1188.0313,419.5469 Q1188.6563,419.5469 1189.25,419.2813 Q1189.8438,419 1190.4688,418.4219 L1190.4688,421.1406 Z " fill="#000000"/><text fill="#000000" font-family="sans-serif" font-size="14" lengthAdjust="spacing" textLength="356.8587" x="1201.5" y="420.932">bmw::memory::shared::PolymorphicOffsetPtrAllocator</text><rect fill="#FFFFFF" height="18.3441" style="stroke:#181818;stroke-width:1;stroke-dasharray:2,2;" width="36.8002" x="1566.3587" y="396.5"/><text fill="#000000" font-family="sans-serif" font-size="12" font-style="italic" lengthAdjust="spacing" textLength="34.8002" x="1567.3587" y="410.3281">T:class</text><line style="stroke:#181818;stroke-width:0.5;" x1="1173.5" x2="1599.159" y1="431.5" y2="431.5"/><text fill="#000000" font-family="sans-serif" font-size="14" lengthAdjust="spacing" textLength="42.5178" x="1178.5" y="450.4659">Notes:</text><text fill="#000000" font-family="sans-serif" font-size="14" lengthAdjust="spacing" textLength="75.8797" x="1178.5" y="469.5339">Unchanged</text><line style="stroke:#181818;stroke-width:1;" x1="1173.5" x2="1599.159" y1="477.6358" y2="477.6358"/></g><!--class ManagedMemoryResource--><g class="entity" data-entity="ManagedMemoryResource" data-source-line="65" data-uid="ent0008" id="entity_ManagedMemoryResource"><rect fill="#F1F1F1" height="86.1358" rx="2.5" ry="2.5" style="stroke:#181818;stroke-width:0.5;" width="366.2627" x="293.5" y="399.5"/><ellipse cx="308.5" cy="415.5" fill="#ADD1B2" rx="11" ry="11" style="stroke:#181818;stroke-width:1;"/><path d="M311.4688,421.1406 Q310.8906,421.4375 310.25,421.5781 Q309.6094,421.7344 308.9063,421.7344 Q306.4063,421.7344 305.0781,420.0938 Q303.7656,418.4375 303.7656,415.3125 Q303.7656,412.1875 305.0781,410.5313 Q306.4063,408.875 308.9063,408.875 Q309.6094,408.875 310.25,409.0313 Q310.9063,409.1875 311.4688,409.4844 L311.4688,412.2031 Q310.8438,411.625 310.25,411.3594 Q309.6563,411.0781 309.0313,411.0781 Q307.6875,411.0781 307,412.1563 Q306.3125,413.2188 306.3125,415.3125 Q306.3125,417.4063 307,418.4844 Q307.6875,419.5469 309.0313,419.5469 Q309.6563,419.5469 310.25,419.2813 Q310.8438,419 311.4688,418.4219 L311.4688,421.1406 Z " fill="#000000"/><text fill="#000000" font-family="sans-serif" font-size="14" lengthAdjust="spacing" textLength="334.2627" x="322.5" y="420.932">bmw::memory::shared::ManagedMemoryResource</text><line style="stroke:#181818;stroke-width:0.5;" x1="294.5" x2="658.7627" y1="431.5" y2="431.5"/><line style="stroke:#181818;stroke-width:1;" x1="294.5" x2="658.7627" y1="439.5" y2="439.5"/><text fill="#000000" font-family="sans-serif" font-size="14" lengthAdjust="spacing" textLength="42.5178" x="299.5" y="458.4659">Notes:</text><text fill="#000000" font-family="sans-serif" font-size="14" lengthAdjust="spacing" textLength="75.8797" x="299.5" y="477.5339">Unchanged</text></g><g class="entity" data-entity="N1" data-source-line="83" data-uid="ent0022" id="entity_N1"><path d="M1416,120 L1416,216.8241 L1753.4853,216.8241 L1753.4853,130 L1743.4853,120 L1416,120" fill="#FEFFDD" style="stroke:#181818;stroke-width:0.5;"/><path d="M1743.4853,120 L1743.4853,130 L1753.4853,130 L1743.4853,120" fill="#FEFFDD" style="stroke:#181818;stroke-width:1;"/><text fill="#000000" font-family="sans-serif" font-size="13" lengthAdjust="spacing" textLength="3.38" x="1422" y="138.897">&#160;</text><line style="stroke:#181818;stroke-width:1;" x1="1417" x2="1752.4853" y1="142.706" y2="142.706"/><text fill="#000000" font-family="sans-serif" font-size="13" lengthAdjust="spacing" textLength="101.9331" x="1422" y="160.603">Global Functions</text><line style="stroke:#181818;stroke-width:1;" x1="1417" x2="1752.4853" y1="168.412" y2="168.412"/><text fill="#000000" font-family="sans-serif" font-size="13" lengthAdjust="spacing" textLength="210.5482" x="1422" y="186.309">EnableOffsetPtrBoundsChecking():</text><text fill="#000000" font-family="sans-serif" font-size="13" lengthAdjust="spacing" textLength="316.4853" x="1422" y="204.0151">- Sets or clears flag which to allow bounds checking.</text></g><!--reverse link Registry to Proxy--><g class="link" data-entity-1="Registry" data-entity-2="Proxy" data-source-line="72" data-uid="lnk10" id="link_Registry_Proxy"><path codeLine="72" d="M1011.13,169 C1022.95,169 1028.59,169 1039.94,169" fill="none" id="Registry-backto-Proxy" style="stroke:#181818;stroke-width:1;"/><polygon fill="#181818" points="1005.13,169,1014.13,173,1010.13,169,1014.13,165,1005.13,169" style="stroke:#181818;stroke-width:1;"/><text fill="#000000" font-family="sans-serif" font-size="13" lengthAdjust="spacing" textLength="97.2661" x="972.53" y="183.897">lookup dispatch</text><text fill="#000000" font-family="sans-serif" font-size="13" lengthAdjust="spacing" textLength="37.375" x="1004.1655" y="201.603">target</text></g><!--reverse link Registry to ManagedMemoryResource--><g class="link" data-entity-1="Registry" data-entity-2="ManagedMemoryResource" data-source-line="73" data-uid="lnk12" id="link_Registry_ManagedMemoryResource"><path codeLine="73" d="M418.5,342.26 C418.5,367.75 418.5,380.06 418.5,399.49" fill="none" id="Registry-backto-ManagedMemoryResource" style="stroke:#181818;stroke-width:1;"/><polygon fill="none" points="418.5,330.26,414.5,336.26,418.5,342.26,422.5,336.26,418.5,330.26" style="stroke:#181818;stroke-width:1;"/><text fill="#000000" font-family="sans-serif" font-size="13" lengthAdjust="spacing" textLength="33.475" x="384.5" y="360.777">holds</text></g><!--reverse link ManagedMemoryResource to HeapResource--><g class="link" data-entity-1="ManagedMemoryResource" data-entity-2="HeapResource" data-source-line="74" data-uid="lnk14" id="link_ManagedMemoryResource_HeapResource"><path codeLine="74" d="M677.59,443 C689.28,443 683.06,443 694.76,443" fill="none" id="ManagedMemoryResource-backto-HeapResource" style="stroke:#181818;stroke-width:1;stroke-dasharray:7,7;"/><polygon fill="none" points="659.59,443,677.59,449,677.59,437,659.59,443" style="stroke:#181818;stroke-width:1;"/></g><!--reverse link ManagedMemoryResource to SharedResource--><g class="link" data-entity-1="ManagedMemoryResource" data-entity-2="SharedResource" data-source-line="75" data-uid="lnk16" id="link_ManagedMemoryResource_SharedResource"><path codeLine="75" d="M476.5,503.68 C476.5,544.38 476.5,587.47 476.5,631.09" fill="none" id="ManagedMemoryResource-backto-SharedResource" style="stroke:#181818;stroke-width:1;stroke-dasharray:7,7;"/><polygon fill="none" points="476.5,485.68,470.5,503.68,482.5,503.68,476.5,485.68" style="stroke:#181818;stroke-width:1;"/></g><!--link Proxy to ManagedMemoryResource--><g class="link" data-entity-1="Proxy" data-entity-2="ManagedMemoryResource" data-source-line="76" data-uid="lnk17" id="link_Proxy_ManagedMemoryResource"><path codeLine="76" d="M1053,211.95 C1053,268.45 1053,360 1053,360 C1053,360 539,360 539,360 C539,360 539,373.36 539,393.32" fill="none" id="Proxy-to-ManagedMemoryResource" style="stroke:#181818;stroke-width:1;"/><polygon fill="#181818" points="539,399.32,543,390.32,539,394.32,535,390.32,539,399.32" style="stroke:#181818;stroke-width:1;"/><text fill="#000000" font-family="sans-serif" font-size="13" lengthAdjust="spacing" textLength="168.7661" x="681.36" y="355.897">dispatch allocate deallocate</text></g><!--link Proxy to PolymorphicOffsetPtrAllocator--><g class="link" data-entity-1="Proxy" data-entity-2="PolymorphicOffsetPtrAllocator" data-source-line="77" data-uid="lnk18" id="link_Proxy_PolymorphicOffsetPtrAllocator"><path codeLine="77" d="M1276.75,211.61 C1276.75,262.85 1276.75,335.86 1276.75,387.19" fill="none" id="Proxy-to-PolymorphicOffsetPtrAllocator" style="stroke:#181818;stroke-width:1;"/><polygon fill="none" points="1276.75,399.19,1280.75,393.19,1276.75,387.19,1272.75,393.19,1276.75,399.19" style="stroke:#181818;stroke-width:1;"/><text fill="#000000" font-family="sans-serif" font-size="13" lengthAdjust="spacing" textLength="108.5371" x="1164.75" y="283.297">allocates memory</text><text fill="#000000" font-family="sans-serif" font-size="13" lengthAdjust="spacing" textLength="33.644" x="1203.8865" y="301.003">using</text></g><!--link PolymorphicOffsetPtrAllocator to OffsetPtr--><g class="link" data-entity-1="PolymorphicOffsetPtrAllocator" data-entity-2="OffsetPtr" data-source-line="78" data-uid="lnk19" id="link_PolymorphicOffsetPtrAllocator_OffsetPtr"><path codeLine="78" d="M1339.75,485.68 C1339.75,505.42 1339.75,523.95 1339.75,548.97" fill="none" id="PolymorphicOffsetPtrAllocator-to-OffsetPtr" style="stroke:#181818;stroke-width:1;"/><polygon fill="#181818" points="1339.75,554.97,1343.75,545.97,1339.75,549.97,1335.75,545.97,1339.75,554.97" style="stroke:#181818;stroke-width:1;"/><text fill="#000000" font-family="sans-serif" font-size="13" lengthAdjust="spacing" textLength="90.3241" x="1245.75" y="498.217">constructs and</text><text fill="#000000" font-family="sans-serif" font-size="13" lengthAdjust="spacing" textLength="45.058" x="1270.073" y="515.923">returns</text></g><!--reverse link Registry to OffsetPtr--><g class="link" data-entity-1="Registry" data-entity-2="OffsetPtr" data-source-line="79" data-uid="lnk21" id="link_Registry_OffsetPtr"><path codeLine="79" d="M1011.26,274 C1079.5,274 1124.25,274 1124.25,274 C1124.25,274 1124.25,434.66 1124.25,554.84" fill="none" id="Registry-backto-OffsetPtr" style="stroke:#181818;stroke-width:1;"/><polygon fill="#181818" points="1005.26,274,1014.26,278,1010.26,274,1014.26,270,1005.26,274" style="stroke:#181818;stroke-width:1;"/><text fill="#000000" font-family="sans-serif" font-size="13" lengthAdjust="spacing" textLength="124.4361" x="999.25" y="350.817">get memory bounds</text></g><!--SRC=[bLPTRzis57tNhxZeo-pCCZ1Ws8FW6kY2j0kmj47JeYy135gwjZZJf41ISRoq_ts7b6HRgH9ZBmbrUR_lFSTq6wahOSMMbDJiznMJiRuqIPBaIZX7RvRRNPPjUMliFijSAImNMNOJlp-pCxND-TQQn_qR4exYYPuIee_6iyjm-AhpKkWr5ycFv7zv_SnhwRnj77SVqVT6cvrUM8YCTXbrPk7pHbHGI5Fy-PMaTcmz51k78-SHf1BIpkAfrjB_yVl2J-X6Q84C-_4lvkEC7emieY-BkmT-vgkMEdeWMR3sSYNPdjfyOF-dgNNXtbkpVLSKC7QZO5Dvk_3GD9L7paBDObAdTJHs4-gdT7q8Cv__7E5uEseIwwS59xNo0r7cNSSECxlejvYa8q5RKT7AM6gcHjtTI4vvIiuRA_MQVCau2-j9w89OXqQ8fd9sqPn5NlPzZ6bNIWWhQnwGiIDbyaswiimayXoMv0qPpN2rizApZRwtA4PMYYatEg-jHQNm9mgsRXfB6Ep-cFAIymrAMiLSAsmZ5rGPD0oEKUXE-b9gr1jR04-zNATqlI9d9lZqjKNvmSaoXY4JN0h_tE1AEPx0JsSHPXrqTQqKOHFSbBvnUzlPjXwjW7iRl8Q4biOe-7aGgcRiTY5puKFFToMtQaoVLYl7_jQVbXBaVR_UXB64FIL-h9JCfLTxDBB66GwbZwPeyz7VDC3tDV3UnV_zVOtGRIuwKGHmIfSObUVHdGzRytSOgb0JkWOYfL3oNxuKIYr5lfbG19g3A03rAm1zotOhdOlBLvsStzBJZp5fmuyvLpvh3MFm1Tey6mJvpxiV8ZiQfg8iUqufOmoYAsPCOXMM242f3bY8yRlsOybCitRMXCK-szI_M5G3BGtYVaDx9Tn93VcEgJ3w5ynI01e8t0u_0c3It44vHxtdoctIMjZ0uwFnsQmFIpExZRWglk1tPHupF-xdKoImDVk0ISmF4plHlZZSDgD_LMTsrIxnQRWHA6z0Vj7nvZTikAbRYhWCFGaMppJxVGNqhxHOAZvKSMADYQEI4ZLgusd9h6DhEJ1WH1D7qxSh4VWWW5QtrGEfZUOa2Dm9Nc5woYtSSahOkOOoWyp4P4uf3CuCkE4O-gNn8joY2R00DO_05cuS6KuRdGP-EYQ0oROS5VBq0NSQ8IAHDg6Br9lKBF_Xt8Saq0LOOu50wNtwcTAdm5Sx6VhGiMBiczqATNQxRetQGrAX0OSvl6igDdRs9OkspRQzglhICoLE_KmEWrmIGmxU362q_ongtasfIkV7bqw6tq6pgIigfAk4nxJlDNvPCRDaE4XQf-PWdb5fLE6I7bMaQlfzFfnYyeocq_fbrJRR8dr18JkctAqY5TmTZ-RczG5b1slNBT2zhXs0bhm-s9ZPGPurr67h7DWABuTxtIvTScIZNkkpWCF-pc96M6WE4_xuMv9WbX-KMGf5xskTXqUS2x8px90bATq5X2F7NB6mU14fiUwmR6AzknvFmswQu1aLuCJ9Vm00]--></g></svg>