<svg xmlns="http://www.w3.org/2000/svg" xmlns:xlink="http://www.w3.org/1999/xlink" contentStyleType="text/css" data-diagram-type="SEQUENCE" height="625px" preserveAspectRatio="none" style="width:718px;height:625px;background:#FFFFFF;" version="1.1" viewBox="0 0 718 625" width="718px" zoomAndPan="magnify"><defs/><g><rect fill="none" height="342.7662" style="stroke:#000000;stroke-width:1.5;" width="703.4008" x="9" y="195.892"/><rect fill="none" height="137.5301" style="stroke:#000000;stroke-width:1.5;" width="288.0002" x="19" y="317.716"/><g><title>SharedMemoryResource</title><rect fill="#000000" fill-opacity="0.00000" height="548.2963" width="8" x="159.1841" y="39.0679"/><line style="stroke:#181818;stroke-width:0.5;stroke-dasharray:5,5;" x1="162.9914" x2="162.9914" y1="39.0679" y2="587.3642"/></g><g><title>os..Stat</title><rect fill="#000000" fill-opacity="0.00000" height="548.2963" width="8" x="357.7973" y="39.0679"/><line style="stroke:#181818;stroke-width:0.5;stroke-dasharray:5,5;" x1="361.6334" x2="361.6334" y1="39.0679" y2="587.3642"/></g><g><title>TypedMemory</title><rect fill="#000000" fill-opacity="0.00000" height="548.2963" width="8" x="453.519" y="39.0679"/><line style="stroke:#181818;stroke-width:0.5;stroke-dasharray:5,5;" x1="456.9612" x2="456.9612" y1="39.0679" y2="587.3642"/></g><g><title>typed_memory_daemon</title><rect fill="#000000" fill-opacity="0.00000" height="548.2963" width="8" x="611.5101" y="39.0679"/><line style="stroke:#181818;stroke-width:0.5;stroke-dasharray:5,5;" x1="614.6194" x2="614.6194" y1="39.0679" y2="587.3642"/></g><g class="participant participant-head" data-participant="SharedMemoryResource"><rect fill="#E2E2F0" height="33.0679" rx="2.5" ry="2.5" style="stroke:#181818;stroke-width:0.5;" width="176.3854" x="74.9914" y="5"/><text fill="#000000" font-family="sans-serif" font-size="14" lengthAdjust="spacing" textLength="162.3854" x="81.9914" y="26.9659">SharedMemoryResource</text></g><g class="participant participant-tail" data-participant="SharedMemoryResource"><rect fill="#E2E2F0" height="33.0679" rx="2.5" ry="2.5" style="stroke:#181818;stroke-width:0.5;" width="176.3854" x="74.9914" y="586.3642"/><text fill="#000000" font-family="sans-serif" font-size="14" lengthAdjust="spacing" textLength="162.3854" x="81.9914" y="608.3301">SharedMemoryResource</text></g><g class="participant participant-head" data-participant="os"><rect fill="#E2E2F0" height="33.0679" rx="2.5" ry="2.5" style="stroke:#181818;stroke-width:0.5;" width="62.3278" x="330.6334" y="5"/><text fill="#000000" font-family="sans-serif" font-size="14" lengthAdjust="spacing" textLength="48.3278" x="337.6334" y="26.9659">os::Stat</text></g><g class="participant participant-tail" data-participant="os"><rect fill="#E2E2F0" height="33.0679" rx="2.5" ry="2.5" style="stroke:#181818;stroke-width:0.5;" width="62.3278" x="330.6334" y="586.3642"/><text fill="#000000" font-family="sans-serif" font-size="14" lengthAdjust="spacing" textLength="48.3278" x="337.6334" y="608.3301">os::Stat</text></g><g class="participant participant-head" data-participant="TypedMemory"><rect fill="#E2E2F0" height="33.0679" rx="2.5" ry="2.5" style="stroke:#181818;stroke-width:0.5;" width="109.1156" x="402.9612" y="5"/><text fill="#000000" font-family="sans-serif" font-size="14" lengthAdjust="spacing" textLength="95.1156" x="409.9612" y="26.9659">TypedMemory</text></g><g class="participant participant-tail" data-participant="TypedMemory"><rect fill="#E2E2F0" height="33.0679" rx="2.5" ry="2.5" style="stroke:#181818;stroke-width:0.5;" width="109.1156" x="402.9612" y="586.3642"/><text fill="#000000" font-family="sans-serif" font-size="14" lengthAdjust="spacing" textLength="95.1156" x="409.9612" y="608.3301">TypedMemory</text></g><g class="participant participant-head" data-participant="tmd"><rect fill="#E2E2F0" height="33.0679" rx="2.5" ry="2.5" style="stroke:#181818;stroke-width:0.5;" width="173.7814" x="528.6194" y="5"/><text fill="#000000" font-family="sans-serif" font-size="14" lengthAdjust="spacing" textLength="159.7814" x="535.6194" y="26.9659">typed_memory_daemon</text></g><g class="participant participant-tail" data-participant="tmd"><rect fill="#E2E2F0" height="33.0679" rx="2.5" ry="2.5" style="stroke:#181818;stroke-width:0.5;" width="173.7814" x="528.6194" y="586.3642"/><text fill="#000000" font-family="sans-serif" font-size="14" lengthAdjust="spacing" textLength="159.7814" x="535.6194" y="608.3301">typed_memory_daemon</text></g><g class="message" data-participant-1="SharedMemoryResource" data-participant-2="SharedMemoryResource"><polygon fill="#181818" points="151.1841,68.7739,161.1841,72.7739,151.1841,76.7739,155.1841,72.7739" style="stroke:#181818;stroke-width:1;"/><line style="stroke:#181818;stroke-width:1;" x1="0" x2="157.1841" y1="72.7739" y2="72.7739"/><text fill="#000000" font-family="sans-serif" font-size="13" lengthAdjust="spacing" textLength="103.7141" x="7" y="66.9649">GetOwnerUid(fd)</text></g><g class="message" data-participant-1="SharedMemoryResource" data-participant-2="os"><polygon fill="#181818" points="349.7973,100.4799,359.7973,104.4799,349.7973,108.4799,353.7973,104.4799" style="stroke:#181818;stroke-width:1;"/><line style="stroke:#181818;stroke-width:1;" x1="163.1841" x2="355.7973" y1="104.4799" y2="104.4799"/><text fill="#000000" font-family="sans-serif" font-size="13" lengthAdjust="spacing" textLength="47.6451" x="170.1841" y="98.6709">fstat(fd)</text></g><g class="message" data-participant-1="os" data-participant-2="SharedMemoryResource"><polygon fill="#181818" points="174.1841,132.186,164.1841,136.186,174.1841,140.186,170.1841,136.186" style="stroke:#181818;stroke-width:1;"/><line style="stroke:#181818;stroke-width:1;" x1="168.1841" x2="360.7973" y1="136.186" y2="136.186"/><text fill="#000000" font-family="sans-serif" font-size="13" lengthAdjust="spacing" textLength="104.1561" x="180.1841" y="130.377">return StatBuffer</text></g><g class="message" data-participant-1="SharedMemoryResource" data-participant-2="SharedMemoryResource"><line style="stroke:#181818;stroke-width:1;" x1="163.1841" x2="205.1841" y1="167.892" y2="167.892"/><line style="stroke:#181818;stroke-width:1;" x1="205.1841" x2="205.1841" y1="167.892" y2="180.892"/><line style="stroke:#181818;stroke-width:1;" x1="164.1841" x2="205.1841" y1="180.892" y2="180.892"/><polygon fill="#181818" points="174.1841,176.892,164.1841,180.892,174.1841,184.892,170.1841,180.892" style="stroke:#181818;stroke-width:1;"/><text fill="#000000" font-family="sans-serif" font-size="13" lengthAdjust="spacing" textLength="184.6132" x="170.1841" y="162.083">set owner_uid = StatBuffer.uid</text></g><path d="M9,195.892 L71.459,195.892 L71.459,205.598 L61.459,215.598 L9,215.598 L9,195.892" fill="#EEEEEE" style="stroke:#000000;stroke-width:1.5;"/><rect fill="none" height="342.7662" style="stroke:#000000;stroke-width:1.5;" width="703.4008" x="9" y="195.892"/><text fill="#000000" font-family="sans-serif" font-size="13" font-weight="bold" lengthAdjust="spacing" textLength="17.459" x="24" y="210.789">alt</text><text fill="#000000" font-family="sans-serif" font-size="11" font-weight="bold" lengthAdjust="spacing" textLength="377.7373" x="86.459" y="209.6509">[StatBuffer.uid == typed memory manager uid &amp;&amp; memory is named]</text><g class="message" data-participant-1="SharedMemoryResource" data-participant-2="TypedMemory"><polygon fill="#181818" points="445.519,235.304,455.519,239.304,445.519,243.304,449.519,239.304" style="stroke:#181818;stroke-width:1;"/><line style="stroke:#181818;stroke-width:1;" x1="163.1841" x2="451.519" y1="239.304" y2="239.304"/><text fill="#000000" font-family="sans-serif" font-size="13" lengthAdjust="spacing" textLength="163.2801" x="170.1841" y="233.495">GetCreatorUid(shm_name)</text></g><g class="message" data-participant-1="TypedMemory" data-participant-2="tmd"><polygon fill="#181818" points="603.5101,267.01,613.5101,271.01,603.5101,275.01,607.5101,271.01" style="stroke:#181818;stroke-width:1;"/><line style="stroke:#181818;stroke-width:1;" x1="457.519" x2="609.5101" y1="271.01" y2="271.01"/><text fill="#000000" font-family="sans-serif" font-size="13" lengthAdjust="spacing" textLength="133.9911" x="464.519" y="265.201">query ownership map</text></g><g class="message" data-participant-1="tmd" data-participant-2="TypedMemory"><polygon fill="#181818" points="468.519,298.716,458.519,302.716,468.519,306.716,464.519,302.716" style="stroke:#181818;stroke-width:1;"/><line style="stroke:#181818;stroke-width:1;" x1="462.519" x2="614.5101" y1="302.716" y2="302.716"/><text fill="#000000" font-family="sans-serif" font-size="13" lengthAdjust="spacing" textLength="111.5271" x="474.519" y="296.907">return creator_uid</text></g><path d="M19,317.716 L81.459,317.716 L81.459,327.4221 L71.459,337.4221 L19,337.4221 L19,317.716" fill="#EEEEEE" style="stroke:#000000;stroke-width:1.5;"/><rect fill="none" height="137.5301" style="stroke:#000000;stroke-width:1.5;" width="288.0002" x="19" y="317.716"/><text fill="#000000" font-family="sans-serif" font-size="13" font-weight="bold" lengthAdjust="spacing" textLength="17.459" x="34" y="332.6131">alt</text><text fill="#000000" font-family="sans-serif" font-size="11" font-weight="bold" lengthAdjust="spacing" textLength="153.8889" x="96.459" y="331.475">[creator_uid retrieval failed]</text><path d="M29,342.4221 L29,405.4221 L297,405.4221 L297,352.4221 L287,342.4221 L29,342.4221" fill="#FEFFDD" style="stroke:#181818;stroke-width:0.5;"/><path d="M287,342.4221 L287,352.4221 L297,352.4221 L287,342.4221" fill="#FEFFDD" style="stroke:#181818;stroke-width:0.5;"/><text fill="#000000" font-family="sans-serif" font-size="13" lengthAdjust="spacing" textLength="217.7762" x="35" y="361.3191">Unable to retrieve creator UID from</text><text fill="#000000" font-family="sans-serif" font-size="13" lengthAdjust="spacing" textLength="247.0002" x="35" y="379.0251">typed_memory_daemon ownership map</text><text fill="#000000" font-family="sans-serif" font-size="13" lengthAdjust="spacing" textLength="131.7161" x="35" y="396.7311">Process is terminated</text><g class="message" data-participant-1="SharedMemoryResource" data-participant-2="SharedMemoryResource"><line style="stroke:#181818;stroke-width:1;" x1="163.1841" x2="205.1841" y1="434.2461" y2="434.2461"/><line style="stroke:#181818;stroke-width:1;" x1="205.1841" x2="205.1841" y1="434.2461" y2="447.2461"/><line style="stroke:#181818;stroke-width:1;" x1="164.1841" x2="205.1841" y1="447.2461" y2="447.2461"/><polygon fill="#181818" points="174.1841,443.2461,164.1841,447.2461,174.1841,451.2461,170.1841,447.2461" style="stroke:#181818;stroke-width:1;"/><text fill="#000000" font-family="sans-serif" font-size="13" lengthAdjust="spacing" textLength="93.9381" x="170.1841" y="428.4371">std::terminate()</text></g><line style="stroke:#A80036;stroke-width:2;" x1="154.1841" x2="172.1841" y1="438.2461" y2="456.2461"/><line style="stroke:#A80036;stroke-width:2;" x1="154.1841" x2="172.1841" y1="456.2461" y2="438.2461"/><g class="message" data-participant-1="TypedMemory" data-participant-2="SharedMemoryResource"><polygon fill="#181818" points="174.1841,481.9521,164.1841,485.9521,174.1841,489.9521,170.1841,485.9521" style="stroke:#181818;stroke-width:1;"/><line style="stroke:#181818;stroke-width:1;" x1="168.1841" x2="456.519" y1="485.9521" y2="485.9521"/><text fill="#000000" font-family="sans-serif" font-size="13" lengthAdjust="spacing" textLength="111.5271" x="180.1841" y="480.1431">return creator_uid</text></g><g class="message" data-participant-1="SharedMemoryResource" data-participant-2="SharedMemoryResource"><line style="stroke:#181818;stroke-width:1;" x1="163.1841" x2="205.1841" y1="517.6582" y2="517.6582"/><line style="stroke:#181818;stroke-width:1;" x1="205.1841" x2="205.1841" y1="517.6582" y2="530.6582"/><line style="stroke:#181818;stroke-width:1;" x1="164.1841" x2="205.1841" y1="530.6582" y2="530.6582"/><polygon fill="#181818" points="174.1841,526.6582,164.1841,530.6582,174.1841,534.6582,170.1841,530.6582" style="stroke:#181818;stroke-width:1;"/><text fill="#000000" font-family="sans-serif" font-size="13" lengthAdjust="spacing" textLength="147.4851" x="170.1841" y="511.8492">owner_uid = creator_uid</text></g><g class="message" data-participant-1="SharedMemoryResource" data-participant-2="SharedMemoryResource"><polygon fill="#181818" points="11,565.3642,1,569.3642,11,573.3642,7,569.3642" style="stroke:#181818;stroke-width:1;"/><line style="stroke:#181818;stroke-width:1;" x1="5" x2="162.1841" y1="569.3642" y2="569.3642"/><text fill="#000000" font-family="sans-serif" font-size="13" lengthAdjust="spacing" textLength="106.1841" x="17" y="563.5552">return owner_uid</text></g><!--SRC=[bLB1JiCm3BtdAomEqtQ03wWq3e24E20GOwSTgj2uB5AJ5CSTsj-JP6kLGOQqNABOpy_FB-ubiMvqBot3QYi9rJCQH_itz6wW1aMV0QwShweLIxu2wS7va-JxlX-BJuiu9cgJChMIuRQfdeqIOdDz2yN65JmYltnRfBLMyrOjH0a5eTnvgA3rGLQ2XMS8bYa9UI0BSOIxeMsHn5dMCe571XT5rODMiCoORa902DdnhnWibv0SW8C3OAILdqWGSxFP6DKUh3Ie143PZwWfipZPSqyesIM3_DRKaM2H239Wh0jEL_0rO7WbyNwh-w2ZJzYG_CDzzAavyDTfj8YDusN1Y2EDEzb1AtLtL1-FTOpWTc7CubADiBML7nq2kv49HtfOFpr0IyvCsC8Q5QQ9vvLSWzv7Jnd9Q2ivauPMHNNJ-y85O5LL4-jyCT4ez4nkVtxUq5UKFkVVJSr_u7An-QRcJ4dA6QhDr7kg5Zy0]--></g></svg>