<svg xmlns="http://www.w3.org/2000/svg" xmlns:xlink="http://www.w3.org/1999/xlink" contentStyleType="text/css" data-diagram-type="SEQUENCE" height="955px" preserveAspectRatio="none" style="width:1356px;height:955px;background:#FFFFFF;" version="1.1" viewBox="0 0 1356 955" width="1356px" zoomAndPan="magnify"><defs/><g><g><title>InstanceP1</title><rect fill="#FFFFFF" height="850.2384" style="stroke:#181818;stroke-width:1;" width="10" x="43.3789" y="49.0679"/></g><g><title>SharedMemoryFactoryP1</title><rect fill="#FFFFFF" height="850.2384" style="stroke:#181818;stroke-width:1;" width="10" x="186.9174" y="49.0679"/></g><g><title>PolymorphicOffsetAllocator</title><rect fill="#FFFFFF" height="324.3541" style="stroke:#181818;stroke-width:1;" width="10" x="455.3986" y="583.9521"/></g><g><title>PolymorphicOffsetAllocator</title><rect fill="#FFFFFF" height="315.3541" style="stroke:#181818;stroke-width:1;" width="10" x="460.3986" y="583.9521"/></g><g><title>MemoryResourceProxy</title><rect fill="#FFFFFF" height="220.2361" style="stroke:#181818;stroke-width:1;" width="10" x="646.67" y="647.3642"/></g><g><title>SharedMemoryResourceP1</title><rect fill="#FFFFFF" height="352.6481" style="stroke:#181818;stroke-width:1;" width="10" x="836.6883" y="175.892"/></g><g><title>SharedMemoryResourceP1</title><rect fill="#FFFFFF" height="93.412" style="stroke:#181818;stroke-width:1;" width="10" x="836.6883" y="742.4822"/></g><g><title>FooSharedMemoryObject</title><rect fill="#FFFFFF" height="14" style="stroke:#181818;stroke-width:1;" width="10" x="1034.4137" y="329.716"/></g><g><title>FooSharedMemoryObject</title><rect fill="#FFFFFF" height="30" style="stroke:#181818;stroke-width:1;" width="10" x="1034.4137" y="774.1882"/></g><g><title>MemoryResourceRegistryP1</title><rect fill="#FFFFFF" height="165.118" style="stroke:#181818;stroke-width:1;" width="10" x="1235.653" y="284.01"/></g><g><title>MemoryResourceRegistryP1</title><rect fill="#FFFFFF" height="31.706" style="stroke:#181818;stroke-width:1;" width="10" x="1235.653" y="679.0702"/></g><rect fill="none" height="309.6481" style="stroke:#000000;stroke-width:1.5;" width="1258.8409" x="91.7577" y="132.4799"/><rect fill="none" height="65.412" style="stroke:#000000;stroke-width:1.5;" width="856.3623" x="91.7577" y="456.1281"/><g><title>InstanceP1</title><rect fill="#000000" fill-opacity="0.00000" height="878.2384" width="8" x="44.3789" y="39.0679"/><line style="stroke:#181818;stroke-width:0.5;stroke-dasharray:5,5;" x1="48" x2="48" y1="39.0679" y2="917.3063"/></g><g><title>SharedMemoryFactoryP1</title><rect fill="#000000" fill-opacity="0.00000" height="878.2384" width="8" x="187.9174" y="39.0679"/><line style="stroke:#181818;stroke-width:0.5;stroke-dasharray:5,5;" x1="191.7577" x2="191.7577" y1="39.0679" y2="917.3063"/></g><g><title>PolymorphicOffsetAllocator</title><rect fill="#000000" fill-opacity="0.00000" height="878.2384" width="8" x="456.3986" y="39.0679"/><line style="stroke:#181818;stroke-width:0.5;stroke-dasharray:5,5;" x1="459.7139" x2="459.7139" y1="39.0679" y2="917.3063"/></g><g><title>MemoryResourceProxy</title><rect fill="#000000" fill-opacity="0.00000" height="878.2384" width="8" x="647.67" y="39.0679"/><line style="stroke:#181818;stroke-width:0.5;stroke-dasharray:5,5;" x1="651.0832" x2="651.0832" y1="39.0679" y2="917.3063"/></g><g><title>SharedMemoryResourceP1</title><rect fill="#000000" fill-opacity="0.00000" height="878.2384" width="8" x="837.6883" y="39.0679"/><line style="stroke:#181818;stroke-width:0.5;stroke-dasharray:5,5;" x1="841.2567" x2="841.2567" y1="39.0679" y2="917.3063"/></g><g><title>FooSharedMemoryObject</title><rect fill="#000000" fill-opacity="0.00000" height="878.2384" width="8" x="1035.4137" y="39.0679"/><line style="stroke:#181818;stroke-width:0.5;stroke-dasharray:5,5;" x1="1039.12" x2="1039.12" y1="39.0679" y2="917.3063"/></g><g><title>MemoryResourceRegistryP1</title><rect fill="#000000" fill-opacity="0.00000" height="878.2384" width="8" x="1236.653" y="39.0679"/><line style="stroke:#181818;stroke-width:0.5;stroke-dasharray:5,5;" x1="1239.7073" x2="1239.7073" y1="39.0679" y2="917.3063"/></g><g class="participant participant-head" data-participant="Instance"><rect fill="#E2E2F0" height="33.0679" rx="2.5" ry="2.5" style="stroke:#181818;stroke-width:0.5;" width="86.7577" x="5" y="5"/><text fill="#000000" font-family="sans-serif" font-size="14" lengthAdjust="spacing" textLength="72.7577" x="12" y="26.9659">InstanceP1</text></g><g class="participant participant-tail" data-participant="Instance"><rect fill="#E2E2F0" height="33.0679" rx="2.5" ry="2.5" style="stroke:#181818;stroke-width:0.5;" width="86.7577" x="5" y="916.3063"/><text fill="#000000" font-family="sans-serif" font-size="14" lengthAdjust="spacing" textLength="72.7577" x="12" y="938.2722">InstanceP1</text></g><g class="participant participant-head" data-participant="Factory"><rect fill="#E2E2F0" height="33.0679" rx="2.5" ry="2.5" style="stroke:#181818;stroke-width:0.5;" width="180.3194" x="101.7577" y="5"/><text fill="#000000" font-family="sans-serif" font-size="14" lengthAdjust="spacing" textLength="166.3194" x="108.7577" y="26.9659">SharedMemoryFactoryP1</text></g><g class="participant participant-tail" data-participant="Factory"><rect fill="#E2E2F0" height="33.0679" rx="2.5" ry="2.5" style="stroke:#181818;stroke-width:0.5;" width="180.3194" x="101.7577" y="916.3063"/><text fill="#000000" font-family="sans-serif" font-size="14" lengthAdjust="spacing" textLength="166.3194" x="108.7577" y="938.2722">SharedMemoryFactoryP1</text></g><g class="participant participant-head" data-participant="Allocator"><rect fill="#E2E2F0" height="33.0679" rx="2.5" ry="2.5" style="stroke:#181818;stroke-width:0.5;" width="195.3693" x="362.7139" y="5"/><text fill="#000000" font-family="sans-serif" font-size="14" lengthAdjust="spacing" textLength="181.3693" x="369.7139" y="26.9659">PolymorphicOffsetAllocator</text></g><g class="participant participant-tail" data-participant="Allocator"><rect fill="#E2E2F0" height="33.0679" rx="2.5" ry="2.5" style="stroke:#181818;stroke-width:0.5;" width="195.3693" x="362.7139" y="916.3063"/><text fill="#000000" font-family="sans-serif" font-size="14" lengthAdjust="spacing" textLength="181.3693" x="369.7139" y="938.2722">PolymorphicOffsetAllocator</text></g><g class="participant participant-head" data-participant="Proxy"><rect fill="#E2E2F0" height="33.0679" rx="2.5" ry="2.5" style="stroke:#181818;stroke-width:0.5;" width="167.1734" x="568.0832" y="5"/><text fill="#000000" font-family="sans-serif" font-size="14" lengthAdjust="spacing" textLength="153.1734" x="575.0832" y="26.9659">MemoryResourceProxy</text></g><g class="participant participant-tail" data-participant="Proxy"><rect fill="#E2E2F0" height="33.0679" rx="2.5" ry="2.5" style="stroke:#181818;stroke-width:0.5;" width="167.1734" x="568.0832" y="916.3063"/><text fill="#000000" font-family="sans-serif" font-size="14" lengthAdjust="spacing" textLength="153.1734" x="575.0832" y="938.2722">MemoryResourceProxy</text></g><g class="participant participant-head" data-participant="Resource"><rect fill="#E2E2F0" height="33.0679" rx="2.5" ry="2.5" style="stroke:#181818;stroke-width:0.5;" width="192.8633" x="745.2567" y="5"/><text fill="#000000" font-family="sans-serif" font-size="14" lengthAdjust="spacing" textLength="178.8633" x="752.2567" y="26.9659">SharedMemoryResourceP1</text></g><g class="participant participant-tail" data-participant="Resource"><rect fill="#E2E2F0" height="33.0679" rx="2.5" ry="2.5" style="stroke:#181818;stroke-width:0.5;" width="192.8633" x="745.2567" y="916.3063"/><text fill="#000000" font-family="sans-serif" font-size="14" lengthAdjust="spacing" textLength="178.8633" x="752.2567" y="938.2722">SharedMemoryResourceP1</text></g><g class="participant participant-head" data-participant="FooObject"><rect fill="#E2E2F0" height="33.0679" rx="2.5" ry="2.5" style="stroke:#181818;stroke-width:0.5;" width="182.5874" x="948.12" y="5"/><text fill="#000000" font-family="sans-serif" font-size="14" lengthAdjust="spacing" textLength="168.5874" x="955.12" y="26.9659">FooSharedMemoryObject</text></g><g class="participant participant-tail" data-participant="FooObject"><rect fill="#E2E2F0" height="33.0679" rx="2.5" ry="2.5" style="stroke:#181818;stroke-width:0.5;" width="182.5874" x="948.12" y="916.3063"/><text fill="#000000" font-family="sans-serif" font-size="14" lengthAdjust="spacing" textLength="168.5874" x="955.12" y="938.2722">FooSharedMemoryObject</text></g><g class="participant participant-head" data-participant="Registry"><rect fill="#E2E2F0" height="33.0679" rx="2.5" ry="2.5" style="stroke:#181818;stroke-width:0.5;" width="199.8913" x="1140.7073" y="5"/><text fill="#000000" font-family="sans-serif" font-size="14" lengthAdjust="spacing" textLength="185.8913" x="1147.7073" y="26.9659">MemoryResourceRegistryP1</text></g><g class="participant participant-tail" data-participant="Registry"><rect fill="#E2E2F0" height="33.0679" rx="2.5" ry="2.5" style="stroke:#181818;stroke-width:0.5;" width="199.8913" x="1140.7073" y="916.3063"/><text fill="#000000" font-family="sans-serif" font-size="14" lengthAdjust="spacing" textLength="185.8913" x="1147.7073" y="938.2722">MemoryResourceRegistryP1</text></g><g><title>InstanceP1</title><rect fill="#FFFFFF" height="850.2384" style="stroke:#181818;stroke-width:1;" width="10" x="43.3789" y="49.0679"/></g><g><title>SharedMemoryFactoryP1</title><rect fill="#FFFFFF" height="850.2384" style="stroke:#181818;stroke-width:1;" width="10" x="186.9174" y="49.0679"/></g><g><title>PolymorphicOffsetAllocator</title><rect fill="#FFFFFF" height="324.3541" style="stroke:#181818;stroke-width:1;" width="10" x="455.3986" y="583.9521"/></g><g><title>PolymorphicOffsetAllocator</title><rect fill="#FFFFFF" height="315.3541" style="stroke:#181818;stroke-width:1;" width="10" x="460.3986" y="583.9521"/></g><g><title>MemoryResourceProxy</title><rect fill="#FFFFFF" height="220.2361" style="stroke:#181818;stroke-width:1;" width="10" x="646.67" y="647.3642"/></g><g><title>SharedMemoryResourceP1</title><rect fill="#FFFFFF" height="352.6481" style="stroke:#181818;stroke-width:1;" width="10" x="836.6883" y="175.892"/></g><g><title>SharedMemoryResourceP1</title><rect fill="#FFFFFF" height="93.412" style="stroke:#181818;stroke-width:1;" width="10" x="836.6883" y="742.4822"/></g><g><title>FooSharedMemoryObject</title><rect fill="#FFFFFF" height="14" style="stroke:#181818;stroke-width:1;" width="10" x="1034.4137" y="329.716"/></g><g><title>FooSharedMemoryObject</title><rect fill="#FFFFFF" height="30" style="stroke:#181818;stroke-width:1;" width="10" x="1034.4137" y="774.1882"/></g><g><title>MemoryResourceRegistryP1</title><rect fill="#FFFFFF" height="165.118" style="stroke:#181818;stroke-width:1;" width="10" x="1235.653" y="284.01"/></g><g><title>MemoryResourceRegistryP1</title><rect fill="#FFFFFF" height="31.706" style="stroke:#181818;stroke-width:1;" width="10" x="1235.653" y="679.0702"/></g><g class="message" data-participant-1="Instance" data-participant-2="Factory"><polygon fill="#181818" points="174.9174,68.7739,184.9174,72.7739,174.9174,76.7739,178.9174,72.7739" style="stroke:#181818;stroke-width:1;"/><line style="stroke:#181818;stroke-width:1;" x1="53.3789" x2="180.9174" y1="72.7739" y2="72.7739"/><text fill="#000000" font-family="sans-serif" font-size="13" lengthAdjust="spacing" textLength="74.6721" x="60.3789" y="66.9649">open("/foo")</text></g><g class="message" data-participant-1="Factory" data-participant-2="Factory"><line style="stroke:#181818;stroke-width:1;" x1="196.9174" x2="238.9174" y1="104.4799" y2="104.4799"/><line style="stroke:#181818;stroke-width:1;" x1="238.9174" x2="238.9174" y1="104.4799" y2="117.4799"/><line style="stroke:#181818;stroke-width:1;" x1="197.9174" x2="238.9174" y1="117.4799" y2="117.4799"/><polygon fill="#181818" points="207.9174,113.4799,197.9174,117.4799,207.9174,121.4799,203.9174,117.4799" style="stroke:#181818;stroke-width:1;"/><text fill="#000000" font-family="sans-serif" font-size="13" lengthAdjust="spacing" textLength="234.4812" x="203.9174" y="98.6709">Check if instances was already opened</text></g><path d="M91.7577,132.4799 L154.2167,132.4799 L154.2167,142.186 L144.2167,152.186 L91.7577,152.186 L91.7577,132.4799" fill="#EEEEEE" style="stroke:#000000;stroke-width:1.5;"/><rect fill="none" height="309.6481" style="stroke:#000000;stroke-width:1.5;" width="1258.8409" x="91.7577" y="132.4799"/><text fill="#000000" font-family="sans-serif" font-size="13" font-weight="bold" lengthAdjust="spacing" textLength="17.459" x="106.7577" y="147.377">alt</text><text fill="#000000" font-family="sans-serif" font-size="11" font-weight="bold" lengthAdjust="spacing" textLength="112.4412" x="169.2167" y="146.2389">[Open new instance]</text><g class="message" data-participant-1="Factory" data-participant-2="Resource"><polygon fill="#181818" points="824.6883,171.892,834.6883,175.892,824.6883,179.892,828.6883,175.892" style="stroke:#181818;stroke-width:1;"/><line style="stroke:#181818;stroke-width:1;" x1="196.9174" x2="830.6883" y1="175.892" y2="175.892"/><text fill="#000000" font-family="sans-serif" font-size="13" lengthAdjust="spacing" textLength="65.0001" x="203.9174" y="170.083">instantiate</text></g><g class="message" data-participant-1="Resource" data-participant-2="FooObject"><polygon fill="#181818" points="1027.4137,203.598,1037.4137,207.598,1027.4137,211.598,1031.4137,207.598" style="stroke:#181818;stroke-width:1;"/><line style="stroke:#181818;stroke-width:1;" x1="846.6883" x2="1033.4137" y1="207.598" y2="207.598"/><text fill="#000000" font-family="sans-serif" font-size="13" lengthAdjust="spacing" textLength="102.4401" x="853.6883" y="201.789">shm_open(open)</text></g><g class="message" data-participant-1="Resource" data-participant-2="Resource"><line style="stroke:#181818;stroke-width:1;" x1="846.6883" x2="888.6883" y1="239.304" y2="239.304"/><line style="stroke:#181818;stroke-width:1;" x1="888.6883" x2="888.6883" y1="239.304" y2="252.304"/><line style="stroke:#181818;stroke-width:1;" x1="847.6883" x2="888.6883" y1="252.304" y2="252.304"/><polygon fill="#181818" points="857.6883,248.304,847.6883,252.304,857.6883,256.304,853.6883,252.304" style="stroke:#181818;stroke-width:1;"/><text fill="#000000" font-family="sans-serif" font-size="13" lengthAdjust="spacing" textLength="91.2471" x="853.6883" y="233.495">GetOwnerUid()</text></g><g class="message" data-participant-1="Resource" data-participant-2="Registry"><polygon fill="#181818" points="1223.653,280.01,1233.653,284.01,1223.653,288.01,1227.653,284.01" style="stroke:#181818;stroke-width:1;"/><line style="stroke:#181818;stroke-width:1;" x1="846.6883" x2="1229.653" y1="284.01" y2="284.01"/><text fill="#000000" font-family="sans-serif" font-size="13" lengthAdjust="spacing" textLength="188.2012" x="853.6883" y="278.201">insert_resource(uniqueID, this)</text></g><g class="message" data-participant-1="Registry" data-participant-2="Resource"><polygon fill="#181818" points="857.6883,294.01,847.6883,298.01,857.6883,302.01,853.6883,298.01" style="stroke:#181818;stroke-width:1;"/><line style="stroke:#181818;stroke-width:1;stroke-dasharray:2,2;" x1="851.6883" x2="1234.653" y1="298.01" y2="298.01"/></g><g class="message" data-participant-1="Resource" data-participant-2="FooObject"><polygon fill="#181818" points="1022.4137,325.716,1032.4137,329.716,1022.4137,333.716,1026.4137,329.716" style="stroke:#181818;stroke-width:1;"/><line style="stroke:#181818;stroke-width:1;" x1="846.6883" x2="1028.4137" y1="329.716" y2="329.716"/><text fill="#000000" font-family="sans-serif" font-size="13" lengthAdjust="spacing" textLength="111.6571" x="853.6883" y="323.907">read(shared state)</text></g><g class="message" data-participant-1="FooObject" data-participant-2="Resource"><polygon fill="#181818" points="857.6883,339.716,847.6883,343.716,857.6883,347.716,853.6883,343.716" style="stroke:#181818;stroke-width:1;"/><line style="stroke:#181818;stroke-width:1;stroke-dasharray:2,2;" x1="851.6883" x2="1038.4137" y1="343.716" y2="343.716"/></g><g class="message" data-participant-1="Resource" data-participant-2="Proxy"><polygon fill="#181818" points="662.67,371.4221,652.67,375.4221,662.67,379.4221,658.67,375.4221" style="stroke:#181818;stroke-width:1;"/><line style="stroke:#181818;stroke-width:1;" x1="656.67" x2="835.6883" y1="375.4221" y2="375.4221"/><text fill="#000000" font-family="sans-serif" font-size="13" lengthAdjust="spacing" textLength="157.8721" x="668.67" y="369.6131">reinterprete(shared state)</text></g><g class="message" data-participant-1="Resource" data-participant-2="Factory"><polygon fill="#181818" points="207.9174,385.4221,197.9174,389.4221,207.9174,393.4221,203.9174,389.4221" style="stroke:#181818;stroke-width:1;"/><line style="stroke:#181818;stroke-width:1;stroke-dasharray:2,2;" x1="201.9174" x2="835.6883" y1="389.4221" y2="389.4221"/></g><g class="message" data-participant-1="Factory" data-participant-2="Factory"><line style="stroke:#181818;stroke-width:1;" x1="196.9174" x2="238.9174" y1="421.1281" y2="421.1281"/><line style="stroke:#181818;stroke-width:1;" x1="238.9174" x2="238.9174" y1="421.1281" y2="434.1281"/><line style="stroke:#181818;stroke-width:1;" x1="197.9174" x2="238.9174" y1="434.1281" y2="434.1281"/><polygon fill="#181818" points="207.9174,430.1281,197.9174,434.1281,207.9174,438.1281,203.9174,434.1281" style="stroke:#181818;stroke-width:1;"/><text fill="#000000" font-family="sans-serif" font-size="13" lengthAdjust="spacing" textLength="144.6251" x="203.9174" y="415.3191">InsertResourceIntoMap</text></g><path d="M91.7577,456.1281 L154.2167,456.1281 L154.2167,465.8341 L144.2167,475.8341 L91.7577,475.8341 L91.7577,456.1281" fill="#EEEEEE" style="stroke:#000000;stroke-width:1.5;"/><rect fill="none" height="65.412" style="stroke:#000000;stroke-width:1.5;" width="856.3623" x="91.7577" y="456.1281"/><text fill="#000000" font-family="sans-serif" font-size="13" font-weight="bold" lengthAdjust="spacing" textLength="17.459" x="106.7577" y="471.0251">alt</text><text fill="#000000" font-family="sans-serif" font-size="11" font-weight="bold" lengthAdjust="spacing" textLength="131.262" x="169.2167" y="469.887">[AllowedProviderCheck]</text><g class="message" data-participant-1="Factory" data-participant-2="Resource"><polygon fill="#181818" points="824.6883,495.5401,834.6883,499.5401,824.6883,503.5401,828.6883,499.5401" style="stroke:#181818;stroke-width:1;"/><line style="stroke:#181818;stroke-width:1;" x1="196.9174" x2="830.6883" y1="499.5401" y2="499.5401"/><text fill="#000000" font-family="sans-serif" font-size="13" lengthAdjust="spacing" textLength="86.0211" x="203.9174" y="493.7311">getowneruid()</text></g><g class="message" data-participant-1="Resource" data-participant-2="Factory"><polygon fill="#181818" points="207.9174,509.5401,197.9174,513.5401,207.9174,517.5401,203.9174,513.5401" style="stroke:#181818;stroke-width:1;"/><line style="stroke:#181818;stroke-width:1;stroke-dasharray:2,2;" x1="201.9174" x2="835.6883" y1="513.5401" y2="513.5401"/></g><g class="message" data-participant-1="Factory" data-participant-2="Instance"><polygon fill="#181818" points="64.3789,548.2461,54.3789,552.2461,64.3789,556.2461,60.3789,552.2461" style="stroke:#181818;stroke-width:1;"/><line style="stroke:#181818;stroke-width:1;stroke-dasharray:2,2;" x1="58.3789" x2="185.9174" y1="552.2461" y2="552.2461"/><text fill="#000000" font-family="sans-serif" font-size="13" lengthAdjust="spacing" textLength="51.207" x="70.3789" y="546.4371">instance</text></g><g class="message" data-participant-1="Instance" data-participant-2="Allocator"><polygon fill="#181818" points="448.3986,579.9521,458.3986,583.9521,448.3986,587.9521,452.3986,583.9521" style="stroke:#181818;stroke-width:1;"/><line style="stroke:#181818;stroke-width:1;" x1="53.3789" x2="454.3986" y1="583.9521" y2="583.9521"/><text fill="#000000" font-family="sans-serif" font-size="13" lengthAdjust="spacing" textLength="129.2851" x="60.3789" y="578.1431">instantiate(Resource)</text></g><g class="message" data-participant-1="Instance" data-participant-2="Allocator"><polygon fill="#181818" points="448.3986,611.6582,458.3986,615.6582,448.3986,619.6582,452.3986,615.6582" style="stroke:#181818;stroke-width:1;"/><line style="stroke:#181818;stroke-width:1;" x1="53.3789" x2="454.3986" y1="615.6582" y2="615.6582"/><text fill="#000000" font-family="sans-serif" font-size="13" lengthAdjust="spacing" textLength="88.5561" x="60.3789" y="609.8492">allocate(Bytes)</text></g><g class="message" data-participant-1="Allocator" data-participant-2="Proxy"><polygon fill="#181818" points="634.67,643.3642,644.67,647.3642,634.67,651.3642,638.67,647.3642" style="stroke:#181818;stroke-width:1;"/><line style="stroke:#181818;stroke-width:1;" x1="470.3986" x2="640.67" y1="647.3642" y2="647.3642"/><text fill="#000000" font-family="sans-serif" font-size="13" lengthAdjust="spacing" textLength="88.5561" x="477.3986" y="641.5552">allocate(Bytes)</text></g><g class="message" data-participant-1="Proxy" data-participant-2="Registry"><polygon fill="#181818" points="1223.653,675.0702,1233.653,679.0702,1223.653,683.0702,1227.653,679.0702" style="stroke:#181818;stroke-width:1;"/><line style="stroke:#181818;stroke-width:1;" x1="656.67" x2="1229.653" y1="679.0702" y2="679.0702"/><text fill="#000000" font-family="sans-serif" font-size="13" lengthAdjust="spacing" textLength="62.5691" x="663.67" y="673.2612">at(unique)</text></g><g class="message" data-participant-1="Registry" data-participant-2="Proxy"><polygon fill="#181818" points="667.67,706.7762,657.67,710.7762,667.67,714.7762,663.67,710.7762" style="stroke:#181818;stroke-width:1;"/><line style="stroke:#181818;stroke-width:1;stroke-dasharray:2,2;" x1="661.67" x2="1239.653" y1="710.7762" y2="710.7762"/><text fill="#000000" font-family="sans-serif" font-size="13" lengthAdjust="spacing" textLength="172.5231" x="673.67" y="704.9672">ManagedMemoryResource*</text></g><g class="message" data-participant-1="Proxy" data-participant-2="Resource"><polygon fill="#181818" points="824.6883,738.4822,834.6883,742.4822,824.6883,746.4822,828.6883,742.4822" style="stroke:#181818;stroke-width:1;"/><line style="stroke:#181818;stroke-width:1;" x1="656.67" x2="830.6883" y1="742.4822" y2="742.4822"/><text fill="#000000" font-family="sans-serif" font-size="13" lengthAdjust="spacing" textLength="88.5561" x="663.67" y="736.6732">allocate(Bytes)</text></g><g class="message" data-participant-1="Resource" data-participant-2="FooObject"><polygon fill="#181818" points="1022.4137,770.1882,1032.4137,774.1882,1022.4137,778.1882,1026.4137,774.1882" style="stroke:#181818;stroke-width:1;"/><line style="stroke:#181818;stroke-width:1;" x1="846.6883" x2="1028.4137" y1="774.1882" y2="774.1882"/><text fill="#000000" font-family="sans-serif" font-size="13" lengthAdjust="spacing" textLength="97.2921" x="853.6883" y="768.3792">ftruncate(Bytes)</text></g><g class="message" data-participant-1="Resource" data-participant-2="Proxy"><polygon fill="#181818" points="667.67,831.8943,657.67,835.8943,667.67,839.8943,663.67,835.8943" style="stroke:#181818;stroke-width:1;"/><line style="stroke:#181818;stroke-width:1;stroke-dasharray:2,2;" x1="661.67" x2="840.6883" y1="835.8943" y2="835.8943"/><text fill="#000000" font-family="sans-serif" font-size="13" lengthAdjust="spacing" textLength="32.981" x="673.67" y="830.0853">void*</text></g><g class="message" data-participant-1="Proxy" data-participant-2="Allocator"><polygon fill="#181818" points="481.3986,863.6003,471.3986,867.6003,481.3986,871.6003,477.3986,867.6003" style="stroke:#181818;stroke-width:1;"/><line style="stroke:#181818;stroke-width:1;stroke-dasharray:2,2;" x1="475.3986" x2="650.67" y1="867.6003" y2="867.6003"/><text fill="#000000" font-family="sans-serif" font-size="13" lengthAdjust="spacing" textLength="32.981" x="487.3986" y="861.7913">void*</text></g><g class="message" data-participant-1="Allocator" data-participant-2="Instance"><polygon fill="#181818" points="59.3789,895.3063,49.3789,899.3063,59.3789,903.3063,55.3789,899.3063" style="stroke:#181818;stroke-width:1;"/><line style="stroke:#181818;stroke-width:1;stroke-dasharray:2,2;" x1="53.3789" x2="454.3986" y1="899.3063" y2="899.3063"/><text fill="#000000" font-family="sans-serif" font-size="13" lengthAdjust="spacing" textLength="93.6781" x="65.3789" y="893.4973">offsetPtr&lt;void&gt;</text></g><!--SRC=[VLNBRjim4BppAuXSAWSDYbwD8a0VIE63OID1pm4hhImsCgbIAwlw-v8Kdx8S7MmlDRixd1tI7-WB_1r0b40hpawAdMaj5Jt3MQg9ihQL9KCk1HsbUgjREHBICOMyv1qJI7UYHwQJZvyfwqEKGLuQfg3Qsu9Fh4JzDQDTa86Fifqqi6juUQZh7l3hp41JqXaXo7Bcqi_Goq5f9ah-cmpO_hZ99C0j5Hzby2Sfqup3xpzGeYKkvHoyG-CPJhn7lrKV4KBqflc58KInmeeNnB-X3uz-RKjb1wAu-rHBURSXRZK3V6-WVAEyfjobztJKhLchW5MJpOVA46YH7dH01Om1IwX-agf-6rk7GAu9Mb1W6pGpgpwmZBmyMzetvrTBt7nio1Kqjla9U1W5g5-yAbQ1iu2M3oXyLUvbCGYk_RlxyP5Ym_lDagFJVQut1_GXwKp8U_oDT4LlJK2r30YB-j49LZyVvHtCgmfMSguwMykQhbmWg4u1mgBx8YNEdomd67oniuBvd9r0kMST8I2C6H9UgKUrHSnP6w7Ib2wy0cNTbVR8fdS2b6PwWvtUROwcQTRI3o4GrsXl_srqPtOamYsGcRFmnJRnGCNxOcNfHabtvK7nRKBGVeeNK1pG4XEgptVEV0LbhcNeZ9g0W-2PCLsBFHFijBoixjVdbVJp0xd9C4X-m_4rga6iPaRVhfivcxZRnKNowdvzuevqBluLVXOq7K9c46d_8uwelfZCnpGp3je-AMVdncJ9L_mF]--></g></svg>